<svg xmlns="http://www.w3.org/2000/svg" width="49.527" height="49.527" viewBox="0 0 49.527 49.527">
  <g id="play-icon" transform="translate(9716 119)">
    <g id="Group_6401" data-name="Group 6401" transform="translate(-9716 -119)">
      <g id="Path_19726" data-name="Path 19726" fill="none">
        <path d="M24.764,0A24.764,24.764,0,1,1,0,24.764,24.764,24.764,0,0,1,24.764,0Z" stroke="none"/>
        <path d="M 24.76374053955078 1 C 21.55521011352539 1 18.44318962097168 1.628170013427734 15.51412963867188 2.867061614990234 C 12.68447113037109 4.063899993896484 10.14297866821289 5.777488708496094 7.960239410400391 7.960239410400391 C 5.777488708496094 10.14297866821289 4.063899993896484 12.68447113037109 2.867061614990234 15.51412963867188 C 1.628170013427734 18.44318962097168 1 21.55521011352539 1 24.76374053955078 C 1 27.97227096557617 1.628170013427734 31.08429145812988 2.867061614990234 34.01335144042969 C 4.063899993896484 36.84300994873047 5.777488708496094 39.38449859619141 7.960239410400391 41.56724166870117 C 10.14297866821289 43.74999237060547 12.68447113037109 45.46358108520508 15.51412963867188 46.66041946411133 C 18.44318962097168 47.89931106567383 21.55521011352539 48.52748107910156 24.76374053955078 48.52748107910156 C 27.97227096557617 48.52748107910156 31.08429145812988 47.89931106567383 34.01335144042969 46.66041946411133 C 36.84300994873047 45.46358108520508 39.38449859619141 43.74999237060547 41.56724166870117 41.56724166870117 C 43.74999237060547 39.38449859619141 45.46358108520508 36.84300994873047 46.66041946411133 34.01335144042969 C 47.89931106567383 31.08429145812988 48.52748107910156 27.97227096557617 48.52748107910156 24.76374053955078 C 48.52748107910156 21.55521011352539 47.89931106567383 18.44318962097168 46.66041946411133 15.51412963867188 C 45.46358108520508 12.68447113037109 43.74999237060547 10.14297866821289 41.56724166870117 7.960239410400391 C 39.38449859619141 5.777488708496094 36.84300994873047 4.063899993896484 34.01335144042969 2.867061614990234 C 31.08429145812988 1.628170013427734 27.97227096557617 1 24.76374053955078 1 M 24.76374053955078 0 C 38.44038009643555 0 49.52748107910156 11.08710098266602 49.52748107910156 24.76374053955078 C 49.52748107910156 38.44038009643555 38.44038009643555 49.52748107910156 24.76374053955078 49.52748107910156 C 11.08710098266602 49.52748107910156 0 38.44038009643555 0 24.76374053955078 C 0 11.08710098266602 11.08710098266602 0 24.76374053955078 0 Z" stroke="none" fill="#fff"/>
      </g>
      <path id="Icon_awesome-play" data-name="Icon awesome-play" d="M15.434,7.809,2.633.241A1.736,1.736,0,0,0,0,1.743V16.875a1.744,1.744,0,0,0,2.633,1.5l12.8-7.564a1.744,1.744,0,0,0,0-3Z" transform="translate(16.981 15.564)" fill="#fff"/>
    </g>
  </g>
</svg>
