<?xml version="1.0" encoding="UTF-8"?>
<svg width="447px" height="240px" viewBox="0 0 447 240" version="1.1" xmlns="http://www.w3.org/2000/svg" xmlns:xlink="http://www.w3.org/1999/xlink">
    <title>user testi</title>
    <g id="Page-1" stroke="none" stroke-width="1" fill="none" fill-rule="evenodd">
        <path d="M157.39,22.6764693 C158.8,22.6064693 160.04,23.2864693 161.27,23.8964693 C154.03,37.9364693 154.07,55.2064693 160.19,69.6364693 C165.04,81.9664693 174.55,92.0464693 185.87,98.7264693 C198.64,105.596469 214.08,108.186469 228.14,104.106469 C249.56,99.0964693 267.14,80.6264693 271.12,58.9964693 C271.44,57.9564693 271.67,55.5964693 273.32,56.1664693 C286.21,58.3964693 298.97,61.3964693 311.9,63.4664693 C356.52,70.7764693 401.49,75.7064693 446.52,79.6864693 C446.54,133.036469 446.52,186.376469 446.53,239.716469 C297.68,239.716469 148.84,239.686469 0,239.736469 C0.16,181.326469 -0.16,122.926469 0.16,64.5264693 C38.74,43.0064693 81.18,27.3264693 125.36,23.0864693 C136.02,22.3664693 146.72,22.2564693 157.39,22.6764693 Z M195.39,41.3964693 C204.36,50.3064693 219.83,51.5864693 229.84,43.6864693 C230.25,43.4964693 230.644444,43.1298026 231.043333,42.7638767 L231.28336,42.5458293 C232.006,41.9004693 232.756,41.3724693 233.65,41.9964693 C244.26,47.9864693 251.92,59.1664693 253.33,71.3064693 C253.78,73.4064693 251.3,74.6564693 249.51,74.4164693 C225.79,74.4264693 202.06,74.4364693 178.34,74.4064693 C176.63,74.6664693 174.45,73.3464693 174.67,71.4464693 C176.16,58.8264693 184.34,47.5064693 195.39,41.3964693 Z M235.29,15.3664693 C238.88,24.9164693 234.44,36.4164693 225.78,41.5964693 C220.71,44.9064693 214.3,45.7964693 208.47,44.3064693 C198.89,41.7864693 191.2,32.3564693 191.68,22.2864693 C191.45,12.6364693 198.57,3.61646927 207.76,0.996469269 C218.86,-2.73353073 231.69,4.43646927 235.29,15.3664693 Z" id="user-testi" fill="#4BB4EB" fill-rule="nonzero"></path>
    </g>
</svg>