<?xml version="1.0" encoding="UTF-8"?>
<svg width="46px" height="34px" viewBox="0 0 46 34" version="1.1" xmlns="http://www.w3.org/2000/svg" xmlns:xlink="http://www.w3.org/1999/xlink">
    <title>Battery</title>
    <g id="Member-Login" stroke="none" stroke-width="1" fill="none" fill-rule="evenodd">
        <g id="Custom-Preset-Copy-6" transform="translate(-807.000000, -743.000000)" fill="#FFFFFF" fill-rule="nonzero">
            <g id="Battery" transform="translate(807.000000, 743.000000)">
                <path d="M44.8434533,2.80148521 L37.9149168,2.80148521 L37.9149168,0.69348776 C37.9149168,0.310485046 37.591187,0 37.191846,0 L32.2364267,0 C32.0447854,0.000123729795 31.8610445,0.0732569297 31.7256249,0.203311122 C31.5902053,0.333365314 31.5141999,0.509687129 31.514329,0.69348776 L31.514329,2.80148521 L14.4837245,2.80148521 L14.4837245,0.69348776 C14.4838536,0.509606297 14.4077814,0.333213759 14.2722565,0.203146143 C14.1367317,0.0730785278 13.9528658,0 13.7611402,0 L8.80815383,0 C8.61638353,0 8.43246764,0.0730636792 8.29686556,0.203117862 C8.16126347,0.333172045 8.08508302,0.50956337 8.08508302,0.69348776 L8.08508302,2.80148521 L1.15703308,2.80148521 C0.757692093,2.80148521 0.433962264,3.11197026 0.433962264,3.49497297 L0.433962264,7.91864085 C0.433962264,8.30164357 0.757692093,8.61212861 1.15703308,8.61212861 L44.8434533,8.61212861 C45.0351789,8.61212861 45.2190448,8.53905008 45.3545697,8.40898247 C45.4900945,8.27891485 45.5660377,8.10252231 45.5660377,7.91864085 L45.5660377,3.49497297 C45.5660377,3.31109151 45.4900945,3.13469897 45.3545697,3.00463135 C45.2190448,2.87456374 45.0351789,2.80148517 44.8434533,2.80148521 L44.8434533,2.80148521 Z" id="Path_580"></path>
                <path d="M3.90566038,32.6795558 C3.90566038,33.1808899 4.32592184,33.5873016 4.84434062,33.5873016 L42.0235839,33.5873016 C42.5420027,33.5873016 42.9622642,33.1808899 42.9622642,32.6795558 L42.9622642,11.1957672 L3.90566038,11.1957672 L3.90566038,32.6795558 Z M18.9903397,23.4017904 L21.1898536,16.6040658 C21.2277673,16.4873372 21.3396734,16.4080002 21.4661941,16.4080002 L24.8963247,16.4080002 C24.9888175,16.4080002 25.0757104,16.4508649 25.1301522,16.5231738 C25.1845939,16.5954827 25.20003,16.6885952 25.1716904,16.7737379 L23.8323896,20.7742292 L27.6022192,20.7742292 C27.7082583,20.7738762 27.805982,20.8297079 27.8568306,20.9196942 C27.9076792,21.0096806 27.903486,21.1193692 27.8459056,21.2054792 L22.8093939,28.7629579 C22.7561821,28.8432405 22.6643154,28.8916266 22.5657074,28.8916266 C22.5301404,28.8916266 22.4948921,28.8851438 22.461897,28.8723021 C22.3347037,28.8240432 22.2590218,28.6970409 22.2796195,28.566421 L23.0935323,23.7656428 L19.2661927,23.7656428 C19.1739979,23.7656875 19.0872939,23.7232639 19.032719,23.6514061 C18.9781441,23.5795484 18.9622249,23.4868498 18.9898523,23.4017904 L18.9903397,23.4017904 Z" id="Path_581"></path>
            </g>
        </g>
    </g>
</svg>