<svg xmlns="http://www.w3.org/2000/svg" width="32" height="13" viewBox="0 0 32 13">
  <g id="car-icons" transform="translate(-0.805 -0.492)">
    <path id="Path_901" d="M0,.045H2V.955H0Z" transform="translate(14.805 5.492)"/>
    <path id="Path_902" d="M25.6,13a3.2,3.2,0,0,1-3.01-2.168H8.342a3.172,3.172,0,0,1-6.018,0H.534A.538.538,0,0,1,0,10.29V7.074A2.485,2.485,0,0,1,1.224,4.933a12.473,12.473,0,0,1,6.1-1.679L9.151,2.241A17.957,17.957,0,0,1,17.807,0h.654A17.615,17.615,0,0,1,25.87,1.625,18.31,18.31,0,0,1,27.923,2.73l3.62.525A.544.544,0,0,1,32,3.79V8.177a2.037,2.037,0,0,1-1.274,1.912l-1.731.7a.515.515,0,0,1-.2.04h-.192A3.2,3.2,0,0,1,25.6,13Zm0-5.418a2.139,2.139,0,0,0-2.121,1.948,2.16,2.16,0,0,0,1.8,2.361,2.125,2.125,0,0,0,.323.025,2.149,2.149,0,0,0,2.089-1.733,2.185,2.185,0,0,0,.043-.433,2.151,2.151,0,0,0-2.025-2.165Zm-20.268,0A2.138,2.138,0,0,0,3.21,9.529a2.16,2.16,0,0,0,1.8,2.361,2.121,2.121,0,0,0,.323.025,2.149,2.149,0,0,0,2.089-1.733,2.256,2.256,0,0,0,.043-.433A2.152,2.152,0,0,0,5.441,7.584Zm12.8-3.249V9.75H22.41a3.233,3.233,0,0,1,3.2-3.25,3.038,3.038,0,0,1,.326.017.429.429,0,0,1,.05.009.323.323,0,0,0,.067.009l.041.005c.052.007.106.014.159.025l.063.016.053.014L26.4,6.6c.056.014.12.029.16.042l.064.024.069.026.009,0c.051.018.108.038.15.056s.058.026.087.041l.046.023.053.026.092.045c.038.02.073.042.112.068l.015.01L27.316,7c.026.015.051.03.073.046a1.25,1.25,0,0,1,.124.092c.02.018.041.034.064.051l.053.041c.027.022.053.047.078.072l.038.036.032.028a.96.96,0,0,1,.077.072c.017.018.034.038.051.058s.037.044.055.061a1.311,1.311,0,0,1,.1.108c.023.029.047.062.069.092l.027.036.026.034c.02.027.041.053.062.085s.057.088.084.138c.011.02.023.039.035.058s.029.046.042.071c.021.042.042.086.061.128l.008.016.021.041a.953.953,0,0,1,.046.1c.009.025.018.049.027.074s.018.051.027.075c.019.049.037.1.054.149.01.03.017.06.024.09s.01.043.016.064c.018.063.03.113.04.155s.016.088.023.136l0,.023.008.054c.005.036.01.072.017.108a.731.731,0,0,1,.007.1c0,.02,0,.04,0,.058s0,.029,0,.044c0,.035.006.07.006.106l1.529-.624a.963.963,0,0,0,.6-.905V5.954h-1.6V4.871h1.6v-.61l-3.276-.474a.54.54,0,0,1-.206-.077A17.1,17.1,0,0,0,25.76,2.77l-1.382,1.4A.522.522,0,0,1,24,4.333ZM5.333,6.5a3.228,3.228,0,0,1,3.2,3.249h8.534V4.333h-9.6A11.411,11.411,0,0,0,1.751,5.874a1.391,1.391,0,0,0-.685,1.2V9.749H2.133A3.229,3.229,0,0,1,5.333,6.5Zm12.8-5.416v2.17h5.644L24.71,2.3A16.592,16.592,0,0,0,18.45,1.084h-.317Zm-1.066.024A16.94,16.94,0,0,0,9.661,3.193l-.1.057h7.508Z" transform="translate(0.805 0.492)"/>
  </g>
</svg>
