<svg xmlns="http://www.w3.org/2000/svg" width="64.629" height="49.426" viewBox="0 0 64.629 49.426">
  <path id="car" d="M56.526,49.426H52.492A4.031,4.031,0,0,1,49.654,48.2a4.2,4.2,0,0,1-1.2-2.9V41.188H16.173v4.119a4.2,4.2,0,0,1-1.2,2.9,4.031,4.031,0,0,1-2.838,1.223H8.1A4.031,4.031,0,0,1,5.265,48.2a4.2,4.2,0,0,1-1.2-2.9V38.356a7.945,7.945,0,0,1-2.018-5.405V26.773a7.839,7.839,0,0,1,2.775-6.179H2.3a1.565,1.565,0,0,1-.945-.322,1.424,1.424,0,0,1-.568-.837L.032,16.347A1.683,1.683,0,0,1,.347,15a1.438,1.438,0,0,1,1.146-.581H9.111l2.144-5.405a13.377,13.377,0,0,1,5.108-6.565A13.871,13.871,0,0,1,24.23,0H40.4a13.869,13.869,0,0,1,7.868,2.446,13.376,13.376,0,0,1,5.107,6.565l2.144,5.405h7.621A1.432,1.432,0,0,1,64.282,15a1.687,1.687,0,0,1,.316,1.351l-.757,3.089a1.424,1.424,0,0,1-.568.837,1.566,1.566,0,0,1-.946.322H59.805a7.84,7.84,0,0,1,2.775,6.178v6.178a7.949,7.949,0,0,1-2.018,5.405v6.951a4.2,4.2,0,0,1-1.2,2.9A4.032,4.032,0,0,1,56.526,49.426ZM52.594,24.712h-.1c-1.171,0-2.487.716-3.91,2.127a6.005,6.005,0,0,0-2.144,4.055c0,.94.551,1.546,1.639,1.8a16.432,16.432,0,0,0,2.952.268c.192,0,.386,0,.578-.01H52.6a4.036,4.036,0,0,0,3.477-2.03,4.194,4.194,0,0,0,0-4.181A4.038,4.038,0,0,0,52.594,24.712ZM12.137,32.951h.884c.192.007.386.01.578.01a16.446,16.446,0,0,0,2.953-.268c1.087-.256,1.639-.861,1.639-1.8a5.991,5.991,0,0,0-2.144-4.055c-1.422-1.408-2.737-2.124-3.91-2.127h-.1a4.038,4.038,0,0,0-3.48,2.03,4.194,4.194,0,0,0,0,4.181,4.036,4.036,0,0,0,3.477,2.03Zm12.2-24.712A5.916,5.916,0,0,0,20.9,9.333,5.783,5.783,0,0,0,18.7,12.1l-2.523,6.434H48.456L45.933,12.1a5.787,5.787,0,0,0-2.207-2.767,5.725,5.725,0,0,0-3.342-1.094H24.336Z" transform="translate(0 0)" fill="#11a9c9"/>
</svg>
