<svg xmlns="http://www.w3.org/2000/svg" width="90.827" height="203.793" viewBox="0 0 90.827 203.793">
  <g id="Screenshot_20210225-170857_Roadside_Assistance" data-name="Screenshot_20210225-170857_Roadside Assistance" transform="translate(-15.904 -12.547)">
    <g id="_ffffffff" data-name="#ffffffff" transform="translate(27.288 160.102)">
      <path id="Path_889" data-name="Path 889" d="M62.8,384.29c1.726.282,3.457.555,5.162.956a44.326,44.326,0,0,1-3.241,7.895c-.534.1-1.478.319-1.544-.464C62.717,389.912,62.957,387.08,62.8,384.29Z" transform="translate(-62.8 -384.286)" fill="#fff"/>
      <path id="Path_890" data-name="Path 890" d="M215.02,385.24c1.743-.393,3.506-.683,5.27-.96-.1,2.72-.132,5.444-.352,8.159.012.795-1.035.7-1.544.969A62.2,62.2,0,0,1,215.02,385.24Z" transform="translate(-152.004 -384.28)" fill="#fff"/>
    </g>
    <g id="_2481bcff" data-name="#2481bcff" transform="translate(15.904 12.547)">
      <path id="Path_892" data-name="Path 892" d="M69.917,28.731a67.393,67.393,0,0,1,22.015.046c7.029,1.192,14.162,3.349,19.8,7.886,2.256,1.9,4.475,4.127,5.324,7.038a86.03,86.03,0,0,1,2.666,12.817,82.548,82.548,0,0,1,.261,13.612c-.037,3.734.021,7.468-.062,11.2-.617,5.013-.215,10.076-.381,15.114,2.563,1.234,5.957,2.467,6.591,5.6-2.248.936-4.438-.559-6.57-1.122,0,29.479-.149,58.959-.236,88.442-.029,2.629.079,5.266-.2,7.882-.228,2.563-.749,5.08-1.068,7.63-.418,4.893-.658,9.8-1.167,14.688a9.727,9.727,0,0,1-3.626,6.5,15.211,15.211,0,0,1-4.744,2.289,70.108,70.108,0,0,1-15.3,2.827c-5.825.224-11.658.7-17.491.327-8.3-.24-16.762-.869-24.582-3.867a10.017,10.017,0,0,1-6.5-8.453c-.232-3.585-.592-7.162-.845-10.743-.058-4.372-1.254-8.615-1.445-12.974-.157-4.529.037-9.062-.195-13.587q-.093-40.481-.066-80.962c-1.759.588-3.511,1.2-5.315,1.652-.493-.315-.985-.629-1.474-.948,1.341-2.674,4.127-4.086,6.785-5.125-.1-5.067.257-10.159-.377-15.2-.112-5.647-.124-11.3-.2-16.944-.219-6.727,1.1-13.4,2.794-19.879.758-3.3,3.179-5.858,5.721-7.944,5.684-4.5,12.842-6.624,19.9-7.8m30.519,6.23A221.8,221.8,0,0,0,114.1,52.891c.6.484,1.209,1.743,2.062.973a39.814,39.814,0,0,0,.008-5.622,10.006,10.006,0,0,0-3.73-6.967c-3.573-2.832-7.824-4.591-12.005-6.313m-51.159,6.21a9.8,9.8,0,0,0-3.85,7.452c-.05,1.875-.021,3.751.037,5.622a3.856,3.856,0,0,0,1.962-1.258c4.988-5.688,9.327-11.9,13.769-18.02-4.16,1.668-8.354,3.436-11.918,6.206M70.79,81.136A75.718,75.718,0,0,0,53.1,83.989a15.91,15.91,0,0,0-5.27,2.579c-.571.439-.3,1.138-.19,1.718q3.409,14.791,6.769,29.6c7.708-2.376,15.8-3.092,23.833-3.212,9.712-.087,19.6.29,28.929,3.237,2.314-10.018,4.587-20.045,6.884-30.067.468-1.167-.836-1.706-1.627-2.207-3.511-1.875-7.464-2.67-11.339-3.378A134.4,134.4,0,0,0,70.79,81.136M45.322,89.714c-.1,5.328.137,10.664.224,15.992.132,10.511.315,21.022.6,31.529,2.335,1.569,4.587,3.258,6.934,4.815-.253-3.953-.161-7.919-.418-11.873-.2-4.844-.132-9.753-1.23-14.506-1.759-7.944-3.6-15.868-5.344-23.812a10.937,10.937,0,0,0-.766-2.144M115.1,93.742c-1.656,7.476-3.4,14.936-5.038,22.421-1.043,4.512-.828,9.17-1.138,13.761-.05,4.045-.406,8.077-.373,12.121,2.306-1.606,4.6-3.225,6.909-4.819.3-8.971.29-17.946.53-26.913-.021-6.847.505-13.694.269-20.542a15.957,15.957,0,0,0-1.159,3.97M46.266,145.063c.07,3.32.224,6.636.19,9.956-.041,6.309.4,12.61.2,18.919,1.9.381,3.8.832,5.729,1.076a31.673,31.673,0,0,0,1.379-6.363c.373-3.3-.141-6.6-.07-9.911-.1-4.1-.327-8.205-.443-12.308-2.322-.488-4.661-.882-6.984-1.37m62.084,1.4c-.008,3.126-.306,6.239-.327,9.364-.182,6.4-1.1,13.036,1.217,19.188,1.925-.261,3.813-.7,5.717-1.08-.1-9.633.174-19.262.364-28.892-2.31.542-4.666.849-6.971,1.42M46.684,175.408c.157,2.79-.083,5.622.377,8.387.066.782,1.01.567,1.544.464a44.326,44.326,0,0,0,3.241-7.895c-1.706-.4-3.436-.675-5.162-.956m63.016.956a62.2,62.2,0,0,0,3.374,8.168c.509-.269,1.557-.174,1.544-.969.219-2.716.257-5.44.352-8.16-1.764.277-3.527.567-5.27.96M50.539,198.479c-.348,1.114-.873,2.376-.261,3.5.6,1.292,2.07,1.685,3.3,2.115A74.894,74.894,0,0,0,74.11,207.7c11.231.323,22.727.157,33.487-3.461,1.391-.513,3.188-.845,3.8-2.4.546-1.018.05-2.144-.261-3.146-2.24-6.516-4.256-13.107-6.574-19.594a41.579,41.579,0,0,1-5.183,1.383,111.938,111.938,0,0,1-22.384,1.494c-6.715-.348-13.541-.733-19.97-2.877C54.757,185.525,52.737,192.033,50.539,198.479Z" transform="translate(-35.3 -27.849)" fill="#2481bc"/>
    </g>
  </g>
</svg>
