<svg xmlns="http://www.w3.org/2000/svg" width="68" height="65" viewBox="0 0 68 65">
  <g id="clock" transform="translate(-0.5)">
    <path id="Combined_Shape" data-name="Combined Shape" d="M38.521,64.871A26.922,26.922,0,0,1,22.2,57.176a26.417,26.417,0,0,1-6.109-9.408H6.641a1.323,1.323,0,1,1,0-2.645h8.6a26.814,26.814,0,0,1-.83-5.083H8.5a1.323,1.323,0,1,1,0-2.645h5.872a26.77,26.77,0,0,1,.66-5.084H1.328a1.323,1.323,0,1,1,0-2.645H15.783a26.525,26.525,0,0,1,2.356-5.083H10.382a1.323,1.323,0,1,1,0-2.645h9.464c.034,0,.068,0,.1.005A26.815,26.815,0,0,1,35.281,12.23V8.861A4.495,4.495,0,0,1,36.371,0h9.563a4.495,4.495,0,0,1,1.089,8.861v3.36a26.674,26.674,0,0,1,16.668,40.6,1.326,1.326,0,1,1-2.227-1.441,24.14,24.14,0,1,0-44.452-13.09,23.853,23.853,0,0,0,7.069,17.02,24.441,24.441,0,0,0,17.141,7.028,24.055,24.055,0,0,0,13.124-3.86,1.332,1.332,0,0,1,1.838.387,1.318,1.318,0,0,1-.389,1.83A26.837,26.837,0,0,1,41.153,65C40.273,65,39.389,64.957,38.521,64.871Zm-.583-53.1a27.18,27.18,0,0,1,6.43-.005V8.994h-6.43ZM34.511,4.5a1.858,1.858,0,0,0,1.859,1.852h9.563a1.852,1.852,0,1,0,0-3.7H36.371A1.858,1.858,0,0,0,34.511,4.5ZM20.558,38.049A20.558,20.558,0,1,1,41.116,58.658,20.607,20.607,0,0,1,20.558,38.049Zm2.65,0A17.908,17.908,0,1,0,41.116,20.1,17.95,17.95,0,0,0,23.208,38.049Zm34.186,18.56a1.577,1.577,0,1,1,1.118.464A1.593,1.593,0,0,1,57.394,56.609Zm-17.859-3.79v-1c0-.6.707-1.083,1.581-1.083s1.581.485,1.581,1.083v1c0,.6-.708,1.084-1.581,1.084S39.535,53.418,39.535,52.819ZM.464,47.1A1.586,1.586,0,0,1,1.581,44.39,1.586,1.586,0,1,1,.464,47.1Zm37.183-8.272a3.876,3.876,0,0,1,.419-1.758l-2.893-2.84a1.263,1.263,0,0,1,0-1.811,1.323,1.323,0,0,1,1.846,0l2.893,2.839a4.115,4.115,0,0,1,3.583,0l6.464-6.343a1.321,1.321,0,0,1,1.845,0,1.261,1.261,0,0,1,0,1.811l-.189.186-6.275,6.158a3.867,3.867,0,0,1,.418,1.758,4.056,4.056,0,0,1-8.111,0Zm2.61,0A1.446,1.446,0,1,0,41.7,37.407,1.434,1.434,0,0,0,40.257,38.825Zm14.591.809c-.6,0-1.08-.71-1.08-1.586s.483-1.585,1.08-1.585h1c.6,0,1.081.71,1.081,1.585s-.484,1.586-1.081,1.586Zm-28.464,0c-.6,0-1.081-.71-1.081-1.586s.483-1.585,1.081-1.585h1c.6,0,1.081.71,1.081,1.585s-.484,1.586-1.081,1.586ZM39.535,25.868v-1c0-.6.707-1.084,1.581-1.084s1.581.485,1.581,1.084v1c0,.6-.708,1.084-1.581,1.084S39.535,26.466,39.535,25.868Z" transform="translate(0.5)" fill="#fff"/>
  </g>
</svg>
