<svg xmlns="http://www.w3.org/2000/svg" width="48" height="59" viewBox="0 0 48 59">
  <path id="contact_icon" d="M24,59a2.273,2.273,0,0,1-2.129-1.7c-.578-1.985-2.224-6.236-4.312-8.118A17.63,17.63,0,0,0,15.9,48.023a45.155,45.155,0,0,1-9.658-8.06A23.935,23.935,0,1,1,48,24.044a23.873,23.873,0,0,1-6.243,15.919,45.155,45.155,0,0,1-9.658,8.06,17.63,17.63,0,0,0-1.657,1.163c-2.09,1.886-3.734,6.135-4.311,8.118A2.281,2.281,0,0,1,24,59ZM24,8.743c-4.1,0-6.546,2.656-6.546,7.1a7.608,7.608,0,0,0,.576,2.621,1.441,1.441,0,0,0-.517,1.419c.2,1.722.948,1.917,1.172,1.936a6.217,6.217,0,0,0,2.042,3.5v2.367c-.418,1.362-1.935,1.851-3.691,2.418-2.357.761-5.028,1.623-5.854,4.866H36.818c-.826-3.243-3.5-4.105-5.854-4.866-1.757-.567-3.273-1.057-3.692-2.418V25.318a6.233,6.233,0,0,0,2.042-3.5c.224-.019.968-.211,1.172-1.936a1.442,1.442,0,0,0-.517-1.419,6.684,6.684,0,0,0,.576-2.621,7.829,7.829,0,0,0-.8-3.743,2.763,2.763,0,0,0-2.473-1.586A3.5,3.5,0,0,0,24,8.743Z" fill="#11a9c9"/>
</svg>
