<svg xmlns="http://www.w3.org/2000/svg" width="98" height="101" viewBox="0 0 98 101">
  <g id="down-arrow" transform="translate(-0.5 -0.5)">
    <path id="Icon_awesome-arrow-right" d="M42.944,6.563l5-4.981a5.407,5.407,0,0,1,7.643,0l43.819,43.6a5.347,5.347,0,0,1,0,7.608L55.588,96.418a5.407,5.407,0,0,1-7.643,0l-5-4.969a5.373,5.373,0,0,1,.09-7.7L70.211,57.983H5.412A5.383,5.383,0,0,1,0,52.6v-7.18a5.383,5.383,0,0,1,5.412-5.384h64.8L43.034,14.273a5.335,5.335,0,0,1-.09-7.71Z" transform="translate(98.5 0.5) rotate(90)" fill="#fff"/>
  </g>
</svg>
