<svg xmlns="http://www.w3.org/2000/svg" width="24" height="24" viewBox="0 0 24 24">
  <g id="fill-checkbox" transform="translate(4338 2210)">
    <circle id="empty-checkbox" cx="12" cy="12" r="12" transform="translate(-4338 -2210)" fill="#11a9c9"/>
    <path id="Icon_awesome-check" data-name="Icon awesome-check" d="M4.663,14.613.2,10.152a.686.686,0,0,1,0-.971l.971-.971a.686.686,0,0,1,.971,0l3.005,3.005,6.437-6.437a.686.686,0,0,1,.971,0l.971.971a.686.686,0,0,1,0,.971L5.633,14.613A.686.686,0,0,1,4.663,14.613Z" transform="translate(-4333 -2207.577)" fill="#fff"/>
  </g>
</svg>
