<?xml version="1.0" encoding="UTF-8"?>
<svg width="38px" height="41px" viewBox="0 0 38 41" version="1.1" xmlns="http://www.w3.org/2000/svg" xmlns:xlink="http://www.w3.org/1999/xlink">
    <title>Fuel</title>
    <g id="Member-Login" stroke="none" stroke-width="1" fill="none" fill-rule="evenodd">
        <g id="Custom-Preset-Copy-6" transform="translate(-941.000000, -883.000000)" fill="#FFFFFF" fill-rule="nonzero">
            <g id="Fuel" transform="translate(941.000000, 883.000000)">
                <g id="Group_418">
                    <path d="M13.5675833,0 L32.5153333,0 C33.2238164,0.190821996 33.9129515,0.448235399 34.5736667,0.768851551 C36.3786034,1.80854125 37.4512349,3.78115339 37.34925,5.87326019 C37.34925,15.3621432 37.34925,24.8510261 37.34925,34.3399091 C37.34925,34.4834706 37.34925,34.6286272 37.34925,34.7721887 C37.2632413,37.8143375 34.7809069,40.2301491 31.7600833,40.2117262 C24.1600833,40.2117262 16.5600833,40.2117262 8.96008333,40.2117262 C8.53430481,40.2146774 8.10949425,40.1702749 7.69341667,40.0791785 C5.08421603,39.4715423 3.27016626,37.083866 3.36933333,34.3877629 C3.36194444,27.8573101 3.36194444,21.3263256 3.36933333,14.7948094 C3.37928121,14.5836304 3.46740702,14.3838703 3.61633333,14.2349196 C5.852,12.1793317 8.09611111,10.1338463 10.3486667,8.09846332 C10.5381105,7.94351157 10.6413641,7.70574513 10.62575,7.46041225 C10.6130833,6.16516855 10.62575,4.86832974 10.62575,3.57308604 C10.5981827,2.6882774 10.8990883,1.82490552 11.4696667,1.1516822 C12.0252439,0.547118532 12.7621358,0.142590915 13.5675833,0 Z M29.9265833,12.429235 C29.84425,12.5073963 29.73975,12.6031039 29.6415833,12.703597 C28.6298333,13.7212885 27.626,14.7453604 26.6015833,15.7502909 C26.4451254,15.8946237 26.243479,15.9792689 26.0315833,15.98956 C22.3371389,16.0023211 18.6474444,16.0023211 14.9625,15.98956 C14.763113,15.9808905 14.5731069,15.9018374 14.42575,15.7662422 C13.3934167,14.751741 12.3769167,13.7212885 11.3635833,12.6860506 C11.2902091,12.5953704 11.2314365,12.4936362 11.1894167,12.3845715 L9.46041667,14.1216655 C10.5339167,15.1983767 11.6406667,16.3022051 12.7315833,17.4219847 C12.8706101,17.5659841 12.9551988,17.7544814 12.9706667,17.9547574 C12.9833333,21.6979904 12.9833333,25.4417551 12.9706667,29.1860515 C12.9556441,29.3862772 12.8722855,29.5750904 12.73475,29.7204193 C11.7356667,30.7508718 10.7223333,31.765373 9.70583333,32.7782791 C9.61318876,32.8567375 9.50971872,32.9212164 9.39866667,32.9696944 L11.1118333,34.6956226 C11.1735833,34.6366028 11.2701667,34.5488708 11.3588333,34.4579485 C12.3800833,33.4306863 13.3934167,32.3986387 14.42575,31.3841375 C14.5620379,31.2550611 14.7392905,31.1787721 14.9260833,31.1687952 C18.6426944,31.1570976 22.3587778,31.1570976 26.0743333,31.1687952 C26.2732682,31.1799507 26.4618056,31.2619196 26.6063333,31.4000887 C27.6291667,32.4050192 28.6361667,33.427496 29.6415833,34.4499729 C29.7223254,34.5500934 29.7904028,34.6599357 29.84425,34.7769741 L31.56375,33.0382849 C30.4886667,31.9567883 29.3803333,30.8545551 28.2925833,29.7315852 C28.1413279,29.5651289 28.0523163,29.3508123 28.0408333,29.1254366 C28.025,25.4215501 28.025,21.7171319 28.0408333,18.012182 C28.054654,17.7870777 28.1459156,17.5738639 28.2989167,17.4092237 C29.2948333,16.3771761 30.3129167,15.3658651 31.3215,14.3481736 C31.4180833,14.2508709 31.5099167,14.1487827 31.5669167,14.0865727 L29.9265833,12.429235 Z M12.9595833,6.51769178 C13.0799167,6.52885767 13.1559167,6.54480895 13.2319167,6.54480895 C16.8545833,6.54480895 20.4756667,6.54480895 24.0983333,6.53523818 C24.282096,6.51310487 24.4512611,6.42334756 24.5733333,6.283208 C25.6468333,5.07410121 26.7060833,3.85223339 27.7669167,2.63355583 C27.83025,2.56177508 27.8809167,2.47404306 27.9711667,2.35600361 L21.4145833,2.35600361 C18.9741389,2.35600361 16.5331667,2.35600361 14.0916667,2.35600361 C13.815937,2.3239538 13.5392461,2.40743164 13.3263881,2.58688868 C13.1135301,2.76634572 12.9831995,3.02602085 12.9659167,3.30510459 C12.9374167,4.36267426 12.958,5.42183905 12.958,6.51769178 L12.9595833,6.51769178 Z" id="Path_485"></path>
                    <polygon id="Path_486" points="7.258 2.85208832 9.62191667 5.56380541 2.46366667 12.0814972 2.88006656e-12 9.24376501"></polygon>
                </g>
                <polygon id="Path_487" points="15.4054054 18.2659091 25.6756757 18.2659091 25.6756757 28.4136364 15.4054054 28.4136364"></polygon>
            </g>
        </g>
    </g>
</svg>