<?xml version="1.0" encoding="UTF-8"?>
<svg width="46px" height="64px" viewBox="0 0 46 64" version="1.1" xmlns="http://www.w3.org/2000/svg" xmlns:xlink="http://www.w3.org/1999/xlink">
    <title>Group</title>
    <g id="Member-Login" stroke="none" stroke-width="1" fill="none" fill-rule="evenodd">
        <g id="Custom-Preset-Copy-22" transform="translate(-937.000000, -468.000000)" fill-rule="nonzero">
            <g id="Group" transform="translate(937.000000, 468.000000)">
                <g fill="#33495F" id="Path_500-2">
                    <path d="M23.447,-0.0010164317 C24.497,-0.0010164317 35.247,0.162 41.747,9.199 C45.3800075,14.359707 46.7086626,20.7965682 45.416,26.974 C45.2714943,27.6437633 45.0925906,28.3056399 44.88,28.957 C44.4092676,30.3825808 43.7746898,31.7487185 42.989,33.028 C40.884,36.507 33.555,47.966 23.443,63.416 C13.331,47.966 6.002,36.506 3.897,33.028 C3.11137376,31.7486843 2.47679947,30.3825543 2.006,28.957 C1.79330387,28.3056714 1.61439877,27.6437893 1.47,26.974 C0.177337442,20.7965682 1.50599252,14.359707 5.139,9.199 C11.644,0.162 22.398,-0.003 23.447,-0.0010164317 Z"></path>
                </g>
                <g id="Group_438" transform="translate(5.922000, 4.880000)">
                    <path d="M35.541,17.651 C35.5484165,21.1024027 34.5311138,24.4783303 32.618,27.351 C32.592,27.397 32.558,27.437 32.532,27.483 C27.668733,34.6741027 18.2758748,37.2245411 10.4434462,33.4806947 C2.6110176,29.7368483 -1.30327446,20.8256846 1.23846847,12.5249095 C3.7802114,4.22413439 12.0128773,-0.967564071 20.598676,0.315940891 C29.1844747,1.59944585 35.5389207,8.97179532 35.542,17.653 L35.541,17.651 Z" id="Path_501" fill="#FFFFFF"></path>
                    <g id="Group_1189" transform="translate(9.482000, 9.121000)" fill="#33495F">
                        <g id="Group_418">
                            <path d="M5.777,0 L13.846,0 C14.1474775,0.0808367361 14.44075,0.189642171 14.722,0.325 C15.4918411,0.764945337 15.9488368,1.60045108 15.904,2.486 C15.904,6.49666667 15.904,10.5076667 15.904,14.519 C15.904,14.58 15.904,14.641 15.904,14.702 C15.867604,15.988085 14.8105776,17.0095811 13.524,17.0020541 C10.288,17.0020541 7.05166667,17.0020541 3.815,17.0020541 C3.63282953,17.0032006 3.45107666,16.9844217 3.273,16.946 C2.1618223,16.6889509 1.38919636,15.6797555 1.431,14.54 C1.431,11.7793333 1.431,9.01866667 1.431,6.258 C1.43406495,6.16968774 1.46968298,6.08562918 1.531,6.022 C2.483,5.15533333 3.43866667,4.29066667 4.398,3.428 C4.4794759,3.3625455 4.52358877,3.26123543 4.516,3.157 C4.516,2.61 4.516,2.057 4.516,1.514 C4.50444893,1.13976974 4.63280404,0.774670758 4.876,0.49 C5.11410394,0.231807248 5.43086163,0.0595416916 5.777,0 Z M12.743,5.253 C12.708,5.286 12.663,5.326 12.621,5.369 C12.19,5.799 11.763,6.232 11.327,6.657 C11.2601878,6.7177266 11.1742024,6.75311156 11.084,6.757 C9.51266667,6.763 7.94133333,6.763 6.37,6.757 C6.28499232,6.7535501 6.20391569,6.72026974 6.141,6.663 C5.701,6.234 5.268,5.798 4.841,5.363 C4.80994633,5.32472594 4.78498586,5.28188837 4.767,5.236 L4.031,5.97 C4.488,6.426 4.96,6.891 5.425,7.37 C5.4838123,7.43127039 5.51920972,7.51126854 5.525,7.596 C5.531,9.178 5.531,10.7603333 5.525,12.343 C5.5187963,12.4276287 5.48345821,12.5074928 5.425,12.569 C5,13.005 4.569,13.433 4.135,13.861 C4.09553573,13.8942697 4.0513978,13.9215611 4.004,13.942 L4.733,14.672 C4.759,14.647 4.799,14.61 4.838,14.572 C5.273,14.138 5.704,13.702 6.144,13.272 C6.2020183,13.2174534 6.27747836,13.1852146 6.357,13.181 C7.93966667,13.1763333 9.52233333,13.1763333 11.105,13.181 C11.1901448,13.1863033 11.2706184,13.2217543 11.332,13.281 C11.767,13.706 12.196,14.138 12.624,14.57 C12.6582536,14.6122734 12.6871401,14.6586262 12.71,14.708 L13.442,13.973 C12.984,13.516 12.512,13.05 12.049,12.573 C11.984594,12.5027409 11.9467483,12.4121941 11.942,12.317 C11.9353333,10.751 11.9353333,9.18433333 11.942,7.617 C11.9479688,7.5218116 11.9868568,7.43166215 12.052,7.362 C12.476,6.926 12.91,6.499 13.34,6.068 C13.381,6.026 13.42,5.984 13.44,5.957 L12.743,5.253 Z M5.518,2.753 C5.569,2.753 5.601,2.765 5.634,2.765 C7.176,2.765 8.719,2.765 10.261,2.765 C10.3383542,2.75521257 10.4094736,2.71751929 10.461,2.659 C10.919,2.148 11.369,1.632 11.821,1.116 C11.848,1.086 11.87,1.051 11.908,0.999 L5.998,0.999 C5.88084638,0.985614925 5.76332445,1.02081332 5.67281653,1.09639405 C5.58230861,1.17197478 5.52671902,1.28133715 5.519,1.399 C5.509,1.844 5.518,2.292 5.518,2.754 L5.518,2.753 Z" id="Path_485"></path>
                            <polygon id="Path_486" points="3.091 1.205 4.098 2.353 1.05 5.108 0.001 3.908"></polygon>
                        </g>
                        <polygon id="Path_487" points="6.535 7.769 10.929 7.769 10.929 12.164 6.535 12.164"></polygon>
                    </g>
                </g>
            </g>
        </g>
    </g>
</svg>