<svg xmlns="http://www.w3.org/2000/svg" width="25.815" height="21.232" viewBox="0 0 25.815 21.232">
  <path id="get_ride" data-name="get ride" d="M10,2V4.235H6.281L3.2,9.9,1.68,8.895.449,10.75,2.2,11.924a.552.552,0,0,0-.022.133V23.232H5.535L5.528,21H21.186l-.007,2.235h3.352V12.057a.5.5,0,0,0-.033-.122l1.766-1.185L25.034,8.895l-1.462.971L20.76,4.235H16.709V2ZM7.623,6.47H19.37L21.6,10.94H5.177Zm.146,7.822A1.117,1.117,0,1,1,6.652,15.41,1.121,1.121,0,0,1,7.77,14.292Zm11.175,0a1.117,1.117,0,1,1-1.117,1.117A1.121,1.121,0,0,1,18.944,14.292Z" transform="translate(-0.449 -2)" fill="#fff"/>
</svg>
