<svg xmlns="http://www.w3.org/2000/svg" width="50.842" height="47.33" viewBox="0 0 50.842 47.33">
  <path id="icon2" d="M18795.076,197.358h-5.355a1.339,1.339,0,0,1-1.148-.652,1.3,1.3,0,0,1,0-1.366,1.325,1.325,0,0,1,1.145-.652h3.166V192.9h-2.264a24.55,24.55,0,0,1-2.637-3.384l1.834-1.224-.988-1.484-1.758,1.172a24.845,24.845,0,0,1-3.068-11.127l2.656.009v-1.782h-2.652a24.846,24.846,0,0,1,3.068-11.127l1.758,1.172.988-1.479-1.83-1.224a24.766,24.766,0,0,1,7.389-7.393l1.215,1.829,1.484-.988-1.172-1.763a24.809,24.809,0,0,1,11.111-3.068V152.8h1.777v-1.758a24.822,24.822,0,0,1,11.113,3.068l-1.172,1.763,1.479.988,1.219-1.829a24.964,24.964,0,0,1,7.389,7.393l-1.83,1.224.988,1.479,1.758-1.172a24.853,24.853,0,0,1,3.068,11.127h-2.646v1.782h2.65a25.047,25.047,0,0,1-3.066,11.131l-1.764-1.182-.988,1.484,1.834,1.224a25.6,25.6,0,0,1-2.623,3.384h-5.832v1.782h5.785a.97.97,0,0,1,.232.028h.07a1.328,1.328,0,0,1,1.021,1.456,1.344,1.344,0,0,1-1.328,1.182h-29.936l.861-1.29-1.484-.988-1.518,2.278Zm8.271-13.159a.892.892,0,0,1,.463.132,9.75,9.75,0,0,0,2.639,1.116.889.889,0,0,1,.67.865v6.49a17.274,17.274,0,0,0,1.777.095,17.852,17.852,0,0,0,1.783-.095v-6.49a.887.887,0,0,1,.666-.865,9.812,9.812,0,0,0,2.643-1.116.873.873,0,0,1,.463-.132.91.91,0,0,1,.629.265l4.561,4.571a17.159,17.159,0,0,0,2.3-2.3l-4.566-4.575a.892.892,0,0,1-.127-1.092,9.775,9.775,0,0,0,1.109-2.647.9.9,0,0,1,.865-.667h6.48a16.6,16.6,0,0,0,0-3.564h-6.484a.9.9,0,0,1-.861-.671,9.755,9.755,0,0,0-1.109-2.642.9.9,0,0,1,.127-1.1l4.566-4.571a16.824,16.824,0,0,0-2.3-2.307l-4.561,4.571a.91.91,0,0,1-.629.265.873.873,0,0,1-.463-.132,9.736,9.736,0,0,0-2.643-1.111.9.9,0,0,1-.666-.865v-6.49a17.621,17.621,0,0,0-1.783-.095,16.326,16.326,0,0,0-1.777.095v6.49a.9.9,0,0,1-.67.865,9.539,9.539,0,0,0-2.639,1.111.946.946,0,0,1-.463.132.889.889,0,0,1-.629-.265l-4.564-4.571a16.591,16.591,0,0,0-2.3,2.307l4.566,4.571a.9.9,0,0,1,.127,1.1,9.6,9.6,0,0,0-1.111,2.642.9.9,0,0,1-.863.671h-6.48a17.387,17.387,0,0,0,0,3.564h6.48a.884.884,0,0,1,.863.667,9.7,9.7,0,0,0,1.111,2.647.881.881,0,0,1-.127,1.092l-4.566,4.575a17.194,17.194,0,0,0,2.3,2.3l4.564-4.571A.875.875,0,0,1,18803.348,184.2Zm10.961,2.019a11.426,11.426,0,0,1-1.848.77v5.535a16.728,16.728,0,0,0,5.738-2.411Zm-10.8-.01-3.9,3.89a16.8,16.8,0,0,0,5.742,2.411v-5.521A11.053,11.053,0,0,1,18803.5,186.207Zm-11.131-6.675h0a16.847,16.847,0,0,0,2.41,5.747l3.891-3.895a11.6,11.6,0,0,1-.771-1.853h-5.529Zm27.514-.009a11.2,11.2,0,0,1-.766,1.853l3.891,3.895a16.68,16.68,0,0,0,2.4-5.748Zm-25.1-12.86a16.681,16.681,0,0,0-2.4,5.747h5.525a11.5,11.5,0,0,1,.77-1.853Zm28.229-.009-3.891,3.894a11.6,11.6,0,0,1,.771,1.853h5.525A16.7,16.7,0,0,0,18823.016,166.654Zm-10.564-7.233h0v5.535a11.627,11.627,0,0,1,1.84.78l3.9-3.9a16.72,16.72,0,0,0-5.738-2.411Zm-7.111,0h0a16.717,16.717,0,0,0-5.738,2.411l3.885,3.895a11.569,11.569,0,0,1,1.854-.77v-5.535Zm3.563,24.574a8.02,8.02,0,1,1,5.666-2.349A7.987,7.987,0,0,1,18808.9,183.99Zm0-14.251a6.239,6.239,0,1,0,6.229,6.239A6.242,6.242,0,0,0,18808.9,169.739Zm0,8.91a2.678,2.678,0,0,1,0-5.355l-.006.01a2.673,2.673,0,0,1,.006,5.346Zm0-3.573a.891.891,0,1,0,.889.889A.892.892,0,0,0,18808.9,175.076Z" transform="translate(-18783.486 -150.528)" fill="#fff" stroke="rgba(0,0,0,0)" stroke-miterlimit="10" stroke-width="1"/>
</svg>
