<svg xmlns="http://www.w3.org/2000/svg" width="69.971" height="35.938" viewBox="0 0 69.971 35.938">
  <path id="icon3" d="M57.322,35.938a6.46,6.46,0,0,1-.983-.076,6.674,6.674,0,0,1-5.847-4.945l-.007-.022c-.012-.035-.024-.072-.033-.108-.3-1.255-.3-1.255-1.554-1.255H17.937A7.037,7.037,0,0,1,16,33.8,6.858,6.858,0,0,1,4.351,30.492L4.329,30.4c-.2-.866-.2-.866-1.183-.866l-.547,0-.554,0c-.316,0-.573,0-.811-.014l-.082,0a1.147,1.147,0,0,1-1.14-1.266C0,26.443,0,24.6.012,22.779a1.175,1.175,0,0,1,.363-1.012,1.164,1.164,0,0,1,1.031-.287c.042,0,.082,0,.121,0,.659,0,.806-.362.97-.958A6.649,6.649,0,0,1,9.154,15.2c.656-.042,1.322-.063,1.979-.063s1.323.021,1.979.063a2.925,2.925,0,0,0,2.715-1.227c1.562-1.835,3.191-3.665,4.766-5.435.96-1.079,1.952-2.194,2.919-3.3A1.962,1.962,0,0,1,25.05,4.5c.039,0,.08,0,.119,0,.924.014,1.935.02,3.184.02q.974,0,1.948,0h.012q.98,0,1.96,0H33c.251-1.3.553-1.734,1.2-1.734h.024c.651.011.935.434,1.166,1.74h.06l.272,0c.119,0,.235,0,.352,0,.168,0,.307,0,.437.011h.038A.92.92,0,0,1,37.2,4.8a.929.929,0,0,1,.268.686c.011.179.01.361.009.538q0,.073,0,.147V22.131h2.049V16.058h.084c.171,0,.337,0,.5,0,.179,0,.349-.005.517-.005.26,0,.472.006.669.02.043,0,.088.006.131.006a1.477,1.477,0,0,0,1.119-.513c4.939-4.984,9.828-9.9,14.53-14.6a5.513,5.513,0,0,1,.653-.6,1.9,1.9,0,0,1,2.468.2,1.9,1.9,0,0,1,.177,2.479,6.02,6.02,0,0,1-.6.656c-4.861,4.881-9.69,9.721-14.351,14.387a1.457,1.457,0,0,0-.492,1.2c.027.656.021,1.3.016,1.989,0,.282,0,.574,0,.869H59.423c0-.11,0-.221,0-.334,0-.23,0-.467,0-.7.023-.771.418-1.24,1.057-1.255h.034c.661,0,1.075.471,1.109,1.26.009.219.006.443,0,.679,0,.129,0,.264,0,.409H61.7c.191,0,.377,0,.557-.006.2,0,.39-.007.581-.007.32,0,.58.01.818.031a1.621,1.621,0,0,1,.971.377C66,24.014,67.37,25.482,68.7,26.9l1.268,1.353,0,.688a1.519,1.519,0,0,1-1.208.606c-.049,0-.1,0-.146-.007-.567-.01-1.18-.015-1.928-.015-.437,0-.869,0-1.292,0h-.006l-1.2,0A20.188,20.188,0,0,1,63,32.523,6.437,6.437,0,0,1,57.322,35.938ZM11.057,25.582h0A3.419,3.419,0,0,0,8.62,26.595,3.461,3.461,0,0,0,11.055,32.5h.011A3.494,3.494,0,0,0,14.5,29.055a3.452,3.452,0,0,0-3.447-3.472Zm46.062.009h-.013a3.455,3.455,0,1,0,2.444,5.89,3.507,3.507,0,0,0,1.012-2.464A3.46,3.46,0,0,0,57.119,25.591ZM30.908,7.973c-.987,0-2.153,0-3.319.012a.694.694,0,0,0-.452.237C25.6,10,24.083,11.772,22.48,13.644l0,0-.721.842H33.148V7.974h-2.24Z" transform="translate(0)" fill="#fff"/>
</svg>
