<svg id="icon5" xmlns="http://www.w3.org/2000/svg" width="37.356" height="40.212" viewBox="0 0 37.356 40.212">
  <g id="Group_418">
    <path id="Path_485" d="M5.559,40.212a5.713,5.713,0,0,1-1.229-.133A5.628,5.628,0,0,1,.005,34.388C0,27.888,0,21.3.005,14.8a.842.842,0,0,1,.248-.56C2.5,12.173,4.76,10.109,6.985,8.1a.765.765,0,0,0,.277-.638c-.008-.863-.006-1.741,0-2.59q0-.65,0-1.3a3.564,3.564,0,0,1,.844-2.421A3.75,3.75,0,0,1,10.2,0H29.152A11.7,11.7,0,0,1,31.21.769a5.551,5.551,0,0,1,2.776,5.1v28.9A5.59,5.59,0,0,1,32.3,38.629a5.509,5.509,0,0,1-3.873,1.583H5.559ZM17.137,31.16c1.851,0,3.726,0,5.573.009a.836.836,0,0,1,.532.231c1.023,1.005,2.046,2.044,3.035,3.049a1.582,1.582,0,0,1,.2.327L28.2,33.038l-.746-.749c-.831-.833-1.688-1.693-2.524-2.557a.979.979,0,0,1-.252-.606c-.016-3.687-.016-7.426,0-11.113a.974.974,0,0,1,.258-.6c.735-.762,1.494-1.525,2.228-2.262l.009-.009.786-.791c.076-.077.151-.158.206-.217l.04-.044-1.641-1.658-.07.066c-.067.063-.143.134-.215.209l-.825.832-.007.007c-.721.728-1.466,1.48-2.208,2.208a.9.9,0,0,1-.571.239c-1.839.006-3.7.009-5.538.009s-3.7,0-5.531-.009a.844.844,0,0,1-.536-.223C9.99,14.713,8.957,13.664,8,12.686a1.121,1.121,0,0,1-.175-.3L6.1,14.122l.477.478c.916.918,1.864,1.867,2.794,2.822a.865.865,0,0,1,.238.533c.013,3.726.013,7.5,0,11.231a.872.872,0,0,1-.236.535c-1.041,1.073-2.109,2.141-3.029,3.057a1.251,1.251,0,0,1-.308.192L7.748,34.7l.057-.054c.056-.052.125-.117.189-.183l.78-.786c.747-.754,1.518-1.533,2.288-2.288a.789.789,0,0,1,.5-.215C13.411,31.163,15.286,31.16,17.137,31.16ZM10.611,2.349a1.007,1.007,0,0,0-.648.237A1.026,1.026,0,0,0,9.6,3.3c-.02.743-.016,1.472-.012,2.244,0,.324,0,.645,0,.969.051,0,.092.01.129.014a1.168,1.168,0,0,0,.145.013c3.561,0,7.243,0,10.866-.01a.741.741,0,0,0,.475-.252c.9-1.017,1.811-2.06,2.689-3.069l.505-.58a1.551,1.551,0,0,0,.1-.135c.029-.042.062-.089.1-.142H10.728A1.007,1.007,0,0,0,10.611,2.349Z" transform="translate(3.364)" fill="#fff"/>
    <path id="Path_486" d="M7.258,0,9.622,2.712,2.464,9.229,0,6.392Z" transform="translate(0 2.852)" fill="#fff"/>
  </g>
  <path id="Path_487" d="M0,0H10.27V10.148H0Z" transform="translate(15.405 18.266)" fill="#fff"/>
</svg>
