<svg xmlns="http://www.w3.org/2000/svg" width="126.692" height="64.838" viewBox="0 0 126.692 64.838">
  <path id="Path_735" data-name="Path 735" d="M7029.882,2253.643a2.741,2.741,0,0,1-2.453,1.081c-2.754-.051-5.51-.018-8.016-.018a36.176,36.176,0,0,1-2.146,5.4,11.682,11.682,0,0,1-12.069,6.025c-5.4-.624-8.86-3.808-10.588-8.921-.026-.078-.053-.156-.073-.235-.549-2.263-.548-2.263-2.814-2.263h-56.056a12.64,12.64,0,0,1-3.5,7.707,12.435,12.435,0,0,1-21.1-5.979c-.406-1.715-.348-1.728-2.182-1.73-1.154,0-2.31.032-3.462-.014a2.074,2.074,0,0,1-2.212-2.278q-.044-4.946,0-9.893a2.109,2.109,0,0,1,2.524-2.343c1.411.086,1.675-.635,1.975-1.722,1.675-6.072,5.763-9.336,12.053-9.607a56.456,56.456,0,0,1,7.168,0,5.307,5.307,0,0,0,4.916-2.214c4.55-5.326,9.291-10.491,13.914-15.756a3.576,3.576,0,0,1,3-1.326c4.287.062,8.575.024,12.861.024h1.32c.463-2.386,1.016-3.15,2.213-3.129,1.171.019,1.688.758,2.113,3.138.653,0,1.343-.033,2.028.008a1.658,1.658,0,0,1,1.724,1.72c.026.41.017.824.017,1.236v28.8h3.71V2230.4c1.169,0,2.188-.055,3.2.016a2.684,2.684,0,0,0,2.263-.916q13.126-13.2,26.308-26.335a10.058,10.058,0,0,1,1.184-1.084,3.446,3.446,0,0,1,4.789,4.842,10.848,10.848,0,0,1-1.085,1.183q-12.983,12.988-25.984,25.959a2.64,2.64,0,0,0-.891,2.156c.069,1.684.02,3.373.02,5.155h26.226c0-.6-.016-1.238,0-1.873.041-1.4.756-2.236,1.913-2.265,1.222-.029,2,.82,2.066,2.272.026.606,0,1.215,0,1.964,1.309,0,2.5-.075,3.675.03a2.966,2.966,0,0,1,1.758.679c3.264,3.371,6.46,6.807,9.678,10.224Zm-87.3-26.078h20.628V2215.81c-3.406,0-6.736-.01-10.066.019a1.26,1.26,0,0,0-.819.427c-3.209,3.7-6.4,7.421-9.743,11.309Zm70.264,26.207a6.273,6.273,0,1,0-1.832,4.446,6.233,6.233,0,0,0,1.832-4.446Zm-83.394.071a6.24,6.24,0,1,0-6.224,6.218,6.239,6.239,0,0,0,6.224-6.218Z" transform="translate(-6903.189 -2201.429)" fill="#fff"/>
</svg>
