<svg xmlns="http://www.w3.org/2000/svg" width="67.155" height="71.775" viewBox="0 0 67.155 71.775">
  <g id="Group_691" data-name="Group 691" transform="translate(-7359.999 -2197.488)">
    <g id="Group_690" data-name="Group 690">
      <path id="Path_736" data-name="Path 736" d="M7384.388,2197.488h34.064a21.249,21.249,0,0,1,3.7,1.373,9.931,9.931,0,0,1,4.989,9.12q.012,25.4,0,50.8,0,.385-.015.77a9.99,9.99,0,0,1-10.048,9.706q-20.5.015-40.989-.006a10.282,10.282,0,0,1-2.29-.234,10.045,10.045,0,0,1-7.775-10.156q-.017-17.482.015-34.963a1.516,1.516,0,0,1,.444-1q6.028-5.5,12.105-10.951a1.363,1.363,0,0,0,.5-1.142c-.025-2.312-.016-4.624-.01-6.936a6.356,6.356,0,0,1,1.518-4.322,6.738,6.738,0,0,1,3.792-2.059Zm29.409,22.178c-.147.14-.335.311-.515.49-1.817,1.815-3.622,3.644-5.464,5.436a1.62,1.62,0,0,1-1.024.426q-9.948.037-19.9,0a1.535,1.535,0,0,1-.967-.4c-1.856-1.81-3.683-3.65-5.506-5.494a1.977,1.977,0,0,1-.313-.539l-3.108,3.1c1.927,1.922,3.918,3.891,5.88,5.889a1.53,1.53,0,0,1,.43.952q.037,10.02,0,20.041a1.527,1.527,0,0,1-.424.955c-1.8,1.838-3.617,3.65-5.443,5.457a2.363,2.363,0,0,1-.553.341l3.079,3.078c.109-.1.28-.26.444-.423,1.834-1.832,3.658-3.675,5.512-5.488a1.435,1.435,0,0,1,.9-.383q10.02-.033,20.041,0a1.528,1.528,0,0,1,.958.414c1.838,1.794,3.649,3.617,5.457,5.443a2.664,2.664,0,0,1,.362.583l3.092-3.1c-1.931-1.929-3.925-3.9-5.88-5.9a1.721,1.721,0,0,1-.454-1.082q-.04-9.915,0-19.831a1.719,1.719,0,0,1,.463-1.077c1.791-1.843,3.62-3.647,5.436-5.465.173-.174.336-.356.441-.468Zm-30.5-10.549c.216.023.353.05.489.05,6.513,0,13.025.008,19.537-.017a1.338,1.338,0,0,0,.857-.45c1.93-2.157,3.833-4.337,5.742-6.513.114-.129.207-.275.369-.494h-24.957a1.822,1.822,0,0,0-2.024,1.693c-.056,1.888-.016,3.776-.016,5.731Z" fill="#fff"/>
      <path id="Path_737" data-name="Path 737" d="M7373.05,2202.576l4.249,4.849-12.872,11.631-4.428-5.063Z" fill="#fff"/>
    </g>
    <path id="Path_738" data-name="Path 738" d="M7387.587,2230.286h18.55v18.553h-18.55Z" fill="#fff"/>
  </g>
</svg>
