<svg xmlns="http://www.w3.org/2000/svg" width="45.132" height="33.587" viewBox="0 0 45.132 33.587">
  <g id="icon1" transform="translate(-0.434)">
    <path id="Path_580" d="M44.409,2.8H37.481V.693A.709.709,0,0,0,36.758,0H31.8a.738.738,0,0,0-.511.2.679.679,0,0,0-.211.49V2.8H14.05V.693A.679.679,0,0,0,13.838.2a.739.739,0,0,0-.511-.2H8.374a.739.739,0,0,0-.511.2.679.679,0,0,0-.212.49V2.8H.723A.709.709,0,0,0,0,3.495V7.919a.709.709,0,0,0,.723.693H44.409a.739.739,0,0,0,.511-.2.679.679,0,0,0,.211-.49V3.495A.679.679,0,0,0,44.921,3a.739.739,0,0,0-.511-.2Z" transform="translate(0.434)" fill="#fff"/>
    <path id="Path_581" d="M38.118,22.391H.939A.924.924,0,0,1,0,21.484V0H39.056V21.484A.924.924,0,0,1,38.118,22.391ZM15.083,12.205h0a.278.278,0,0,0,.044.25.294.294,0,0,0,.233.114h3.828l-.814,4.8a.281.281,0,0,0,.182.306.295.295,0,0,0,.347-.11L23.94,10.01a.271.271,0,0,0,.011-.286.287.287,0,0,0-.251-.145H19.927l1.339-4a.278.278,0,0,0-.041-.251.3.3,0,0,0-.234-.115h-3.43a.288.288,0,0,0-.276.2l-2.2,6.8Z" transform="translate(3.906 11.196)" fill="#fff"/>
  </g>
</svg>
