<svg xmlns="http://www.w3.org/2000/svg" width="92.75" height="71.021" viewBox="0 0 92.75 71.021">
  <g id="Group_693" data-name="Group 693" transform="translate(-6489.669 -2195.843)">
    <path id="Path_739" data-name="Path 739" d="M6580.939,2201.846H6566.7v-4.517a1.486,1.486,0,0,0-1.486-1.486h-10.183a1.484,1.484,0,0,0-1.485,1.486v4.517h-35v-4.517a1.485,1.485,0,0,0-1.485-1.486h-10.184a1.486,1.486,0,0,0-1.486,1.486v4.517h-14.238a1.485,1.485,0,0,0-1.485,1.486v9.479a1.484,1.484,0,0,0,1.485,1.486h89.781a1.484,1.484,0,0,0,1.484-1.486v-9.479a1.485,1.485,0,0,0-1.485-1.486Zm0,0" fill="#fff"/>
    <path id="Path_740" data-name="Path 740" d="M6495.98,2264.938a1.925,1.925,0,0,0,1.926,1.926h76.285a1.927,1.927,0,0,0,1.926-1.926v-45.583H6495.98Zm30.95-19.685,4.513-14.424a.6.6,0,0,1,.567-.416h7.038a.594.594,0,0,1,.565.777l-2.748,8.488h7.735a.594.594,0,0,1,.5.915l-10.335,16.035a.591.591,0,0,1-.5.272.58.58,0,0,1-.213-.04.6.6,0,0,1-.373-.65l1.669-10.186H6527.5a.592.592,0,0,1-.567-.771Zm0,0" fill="#fff"/>
  </g>
</svg>
