<svg id="icon6" xmlns="http://www.w3.org/2000/svg" width="23.986" height="55.351" viewBox="0 0 23.986 55.351">
  <path id="Combined_Shape" data-name="Combined Shape" d="M4.685,52.517a9.686,9.686,0,0,1-2.84-6.852v-.923a2.306,2.306,0,1,1,4.612,0v.923a5.074,5.074,0,0,0,6.116,4.972,5.022,5.022,0,0,0,3.93-3.93,5.1,5.1,0,0,0-1.67-4.9,15.916,15.916,0,0,1-5.009-7.675h4.9a11.594,11.594,0,0,0,3.109,4.17,9.69,9.69,0,0,1-4.382,16.863,10.233,10.233,0,0,1-1.91.185h-.01A9.686,9.686,0,0,1,4.685,52.517Zm4.54-20.228a2.768,2.768,0,0,1-2.768-2.768V28.6h11.07v.923a2.767,2.767,0,0,1-2.767,2.768Zm8.7-5.536H6.048a.9.9,0,0,1-.78-.452L.13,17.749a.975.975,0,0,1-.13-.48V9.225A.926.926,0,0,1,.923,8.3h22.14a.927.927,0,0,1,.923.923v8.044a.987.987,0,0,1-.13.48L18.718,26.3a.9.9,0,0,1-.781.452ZM2.768,11.07v6.457a1,1,0,0,0,.121.461l3.69,6.458a.925.925,0,0,0,1.6-.923l-3.57-6.246V11.07a.923.923,0,1,0-1.845,0ZM8.3,13.838a3.69,3.69,0,0,0,6.3,2.609,3.657,3.657,0,0,0,1.08-2.609,3.69,3.69,0,0,0-7.38,0Zm1.845,0a1.845,1.845,0,1,1,1.845,1.845A1.845,1.845,0,0,1,10.148,13.838Zm4.613-7.38V.923A.922.922,0,0,1,15.683,0h2.768a.922.922,0,0,1,.922.923V6.457Zm-10.148,0V.923A.923.923,0,0,1,5.535,0H8.3a.923.923,0,0,1,.923.923V6.457Z" transform="translate(0 0)" fill="#fff"/>
</svg>
