<svg xmlns="http://www.w3.org/2000/svg" width="129.259" height="112.037" viewBox="0 0 129.259 112.037">
  <g id="_000000ff" data-name="#000000ff" transform="translate(-127.99 -101.749)">
    <path id="Path_32" data-name="Path 32" d="M182.96,102.047l.591-.089c3.246-.343,6.988-.534,9.645,1.717a8.564,8.564,0,0,1,2.435,3.09c.164.34.286.7.418,1.053a12.284,12.284,0,0,1,.34,1.673c.066,8.6.009,17.2.026,25.8-.012,14.244.032,28.491-.023,42.738a10.687,10.687,0,0,1-.349,1.746c-.138.349-.271.7-.418,1.05a8.385,8.385,0,0,1-4.567,4.3c-.361.153-.727.283-1.1.407a26.47,26.47,0,0,1-7.594-.009c.234-.026.467-.046.7-.066a3.016,3.016,0,0,1-1.189-.346,5.466,5.466,0,0,1-1.382-.669,8.961,8.961,0,0,1-2.758-2.856,9.742,9.742,0,0,1-1.18-3.5c-.089-12.631,0-25.268-.04-37.9.04-10.219-.046-20.441.038-30.66a8.845,8.845,0,0,1,5.519-7.207A3.5,3.5,0,0,0,182.96,102.047Z" transform="translate(-34.526 0)" fill="#fff"/>
    <path id="Path_33" data-name="Path 33" d="M464.933,102.038a24.248,24.248,0,0,1,5.294-.263c.565.133,1.145.182,1.722.268a3.332,3.332,0,0,0,.886.277,8.914,8.914,0,0,1,4.351,3.7,9.131,9.131,0,0,1,1.2,4.74c-.026,22.435.052,44.87-.037,67.3a8.592,8.592,0,0,1-5.317,7.06,9.385,9.385,0,0,1-1.105.407c-.427.069-.854.141-1.281.182a21.94,21.94,0,0,1-5.274-.11,5.358,5.358,0,0,1-1.506-.459,8.412,8.412,0,0,1-4.582-4.31,11.2,11.2,0,0,1-.424-1.047,10.759,10.759,0,0,1-.346-1.694q-.069-34.319-.014-68.635a15.507,15.507,0,0,1,.658-2.522,9.055,9.055,0,0,1,4.887-4.593C464.269,102.266,464.713,102.116,464.933,102.038Z" transform="translate(-235.146)" fill="#fff"/>
    <path id="Path_34" data-name="Path 34" d="M267.139,138.383c1.171-.349,2.741.144,2.917,1.506.1,19.25.006,38.5.043,57.752a20.248,20.248,0,0,1-.112,2.438,2.286,2.286,0,0,1-2.732,1.076,2.041,2.041,0,0,1-1.321-1.786c-.046-1.134-.014-2.271,0-3.4-1.194-.173-2.4.026-3.6-.113a2.228,2.228,0,0,1-1.8-1.607c-.078-15.992-.006-31.988-.035-47.98a2.3,2.3,0,0,1,1.35-2.429c1.342-.277,2.732,0,4.085-.231,0-1.212-.072-2.426.026-3.635C266,139.246,266.651,138.822,267.139,138.383Z" transform="translate(-94.27 -25.987)" fill="#fff"/>
    <path id="Path_35" data-name="Path 35" d="M385.6,138.513a2.3,2.3,0,0,1,2.265.211,2.033,2.033,0,0,1,.822,1.483c.046,19.446,0,38.9.023,58.343a2.6,2.6,0,0,1-.5,2.005,2.159,2.159,0,0,1-3.58-.514,13.444,13.444,0,0,1-.176-4.082l-.2,0c-2.692-.115-5.384.006-8.073-.066a2.455,2.455,0,0,1-1.679-1.59c-.012-16.324-.058-32.654.023-48.978a4.121,4.121,0,0,1,.329-.782c1.105-1.232,2.926-.825,4.394-.84,1.714-.078,3.428-.014,5.144-.046C384.606,141.955,383.8,139.575,385.6,138.513Z" transform="translate(-175.373 -26.017)" fill="#fff"/>
    <path id="Path_36" data-name="Path 36" d="M319.544,139.762a2.182,2.182,0,0,1,3.872-.4c.066.144.2.436.268.583.1,22.674-.006,45.355.052,68.029.066.046.2.141.263.188a4.977,4.977,0,0,1,2.651,4.535,5.232,5.232,0,0,1-2.291,4.31,8.469,8.469,0,0,0,3.529,3.353A10.55,10.55,0,0,1,330.6,223.2a11.434,11.434,0,0,1,1.52,3.632,24.687,24.687,0,0,1,.023,4.308,10.878,10.878,0,0,1-6.867,8.052c-.427.2-.912.222-1.342.415a11.289,11.289,0,0,1-6.07-.407,8.513,8.513,0,0,1-2.031-1.013,11.271,11.271,0,0,1-2.986-2.79,10.721,10.721,0,0,1-2.04-6.549,2.3,2.3,0,0,1,1.454-1.838,2.4,2.4,0,0,1,2.363.707c.609.713.387,1.7.574,2.545a7.241,7.241,0,0,0,.765,2.037,7.131,7.131,0,0,0,2.888,2.683,8.239,8.239,0,0,0,3.3.583,6.689,6.689,0,0,0,5.369-3.979,6.189,6.189,0,0,0-.1-5.231,7.068,7.068,0,0,0-3.076-3.174,10.45,10.45,0,0,1-3.736-4.088c-.364-.574-.309-1.52-1.05-1.766a4.765,4.765,0,0,1-2.663-2.582,5.642,5.642,0,0,1-.309-3.26A5.293,5.293,0,0,1,319.4,208c.032-4.016.014-8.035.012-12.054-2.651-.012-5.306.012-7.957-.006a2.222,2.222,0,0,1-2.2-1.567c-.055-16.333,0-32.663-.026-49a2.176,2.176,0,0,1,1.544-1.567c2.882-.084,5.767-.11,8.653-.1A21.508,21.508,0,0,1,319.544,139.762Z" transform="translate(-128.949 -26.051)" fill="#fff"/>
    <path id="Path_37" data-name="Path 37" d="M544.036,157.709a4.966,4.966,0,0,1,2.121.294,8.777,8.777,0,0,1,5.043,4.149,8.753,8.753,0,0,1,.955,4.287v34.319a8.733,8.733,0,0,1-.958,4.282,7.739,7.739,0,0,1-3.99,3.71c-.092.055-.274.159-.366.211-1.018.251-2.132.825-3.159.312a2.166,2.166,0,0,1-1.189-2.152c.014-15.842-.037-31.688.023-47.53.006-.107.014-.32.02-.427A2.672,2.672,0,0,1,544.036,157.709Z" transform="translate(-294.907 -39.8)" fill="#fff"/>
    <path id="Path_38" data-name="Path 38" d="M133.991,158.015a3.779,3.779,0,0,1,2.273-.176,2.3,2.3,0,0,1,1.347,1.336l.012.239c.081,15.906,0,31.815.04,47.723a2.167,2.167,0,0,1-1.428,2.245c-1.145.349-2.3-.248-3.355-.632a7.963,7.963,0,0,1-3.935-3.7,8.756,8.756,0,0,1-.952-4.279V167.6a12.012,12.012,0,0,1,.4-4.071,7.983,7.983,0,0,1,4.541-5.11A9.252,9.252,0,0,1,133.991,158.015Z" transform="translate(0 -39.815)" fill="#fff"/>
  </g>
</svg>
