<svg xmlns="http://www.w3.org/2000/svg" width="55" height="38" viewBox="0 0 55 38">
  <path id="icon4" d="M11.655,38h0l-.025-6.033a10.04,10.04,0,0,1-2.784-7.307c-.016-3.983,1.666-7.148,4.615-8.684a16.9,16.9,0,0,1,2.959-7.93A7,7,0,0,1,21.948,4.9L41.759,4.82h.023c4.147,0,7.661,4.525,8.546,11C53.282,17.344,54.985,20.5,55,24.481a10.086,10.086,0,0,1-2.725,7.326l.016,6.035-7.342.026L44.932,34.2l-25.946.1.008,3.671Zm5.17-16.523h-.008a3.147,3.147,0,0,0,.007,6.293h.007a3.057,3.057,0,0,0,2.175-.924,3.2,3.2,0,0,0,.895-2.229A3.117,3.117,0,0,0,16.826,21.477Zm30.209-.116h-.008a3.147,3.147,0,0,0,.009,6.293h.007a3.06,3.06,0,0,0,2.174-.927,3.162,3.162,0,0,0,.9-2.229A3.118,3.118,0,0,0,47.035,21.361Zm-6.161,4.262h-.01l-17.872.067a.745.745,0,0,0-.709.752.736.736,0,0,0,.717.745l17.864-.066a.734.734,0,0,0,.52-.224.764.764,0,0,0,0-1.061.71.71,0,0,0-.508-.213Zm-17.9-2.689a.734.734,0,0,0-.634.373.768.768,0,0,0,0,.76.735.735,0,0,0,.631.366h.022l17.864-.067a.756.756,0,0,0,.515-1.288.709.709,0,0,0-.5-.21h-.02l-17.863.066H22.97ZM41.788,7.078h-.021l-19.81.075a4.882,4.882,0,0,0-3.773,2.277,14.212,14.212,0,0,0-2.348,5.705,10.678,10.678,0,0,1,2.013-.192h.028l19.209-.074a4.851,4.851,0,0,1,2.335-4.181,4.618,4.618,0,0,1,4.709-.022,4.847,4.847,0,0,1,2.372,4.16v.034a11.155,11.155,0,0,1,1.434.149,14.277,14.277,0,0,0-2.378-5.675A4.877,4.877,0,0,0,41.788,7.078Zm.007,4.495h-.016a3.293,3.293,0,0,0-3.226,3.3l6.486-.035A3.3,3.3,0,0,0,41.8,11.572ZM11.035,14.89H0V5.152H1.261V4.6C1.261,1.423,3.223,0,5.168,0h.7C7.816,0,9.782,1.423,9.782,4.6v.55h1.253v9.737ZM5.168,1.192c-1.7,0-2.75,1.307-2.75,3.411l0,.55h6.2V4.6c0-2.1-1.055-3.411-2.753-3.411Z" fill="#fff"/>
</svg>
