<svg xmlns="http://www.w3.org/2000/svg" width="76.308" height="70.879" viewBox="0 0 76.308 70.879">
  <g id="Group_687" data-name="Group 687" transform="translate(-7141.034 -2195.88)">
    <path id="Path_724" data-name="Path 724" d="M7141.034,2235.393a37.943,37.943,0,0,0,4.7,17.029l2.7-1.8,1.513,2.27-2.81,1.874a38.377,38.377,0,0,0,4.036,5.174h3.474v2.727h-4.773a2.046,2.046,0,0,0,0,4.092H7158l2.322-3.484,2.27,1.513-1.314,1.971h45.866a2.046,2.046,0,0,0,.469-4.038.686.686,0,0,1-.106-.014,1.933,1.933,0,0,0-.363-.04h-8.864v-2.727h8.941a38.452,38.452,0,0,0,4.02-5.177l-2.807-1.871,1.513-2.27,2.7,1.8a37.939,37.939,0,0,0,4.694-17.031h-4.059v-2.727h4.056a37.921,37.921,0,0,0-4.7-17.027l-2.693,1.8-1.513-2.27,2.8-1.865a38.518,38.518,0,0,0-11.316-11.316l-1.865,2.8-2.27-1.513,1.8-2.693a37.913,37.913,0,0,0-17.026-4.7v2.693h-2.727v-2.693a37.916,37.916,0,0,0-17.027,4.7l1.8,2.693-2.27,1.513-1.865-2.8a38.5,38.5,0,0,0-11.316,11.316l2.8,1.865-1.513,2.27-2.693-1.8a37.916,37.916,0,0,0-4.7,17.027h4.056v2.727Zm38.155-30a28.64,28.64,0,1,1-28.64,28.64,28.641,28.641,0,0,1,28.64-28.64Z" fill="#fff"/>
    <path id="Path_725" data-name="Path 725" d="M7173.733,2217.177v-8.471a25.754,25.754,0,0,0-8.785,3.7l5.962,5.963a17.576,17.576,0,0,1,2.822-1.192Z" fill="#fff"/>
    <path id="Path_726" data-name="Path 726" d="M7164.681,2237.781a14.843,14.843,0,0,0,1.71,4.044,1.362,1.362,0,0,1-.2,1.675l-7,7a26.119,26.119,0,0,0,3.525,3.526l7-7a1.362,1.362,0,0,1,1.675-.2,14.885,14.885,0,0,0,4.044,1.711,1.362,1.362,0,0,1,1.023,1.32v9.937a25.388,25.388,0,0,0,5.455,0v-9.937a1.365,1.365,0,0,1,1.024-1.32,14.869,14.869,0,0,0,4.043-1.711,1.362,1.362,0,0,1,1.675.2l7,6.995a26.119,26.119,0,0,0,3.525-3.526l-7-7a1.365,1.365,0,0,1-.2-1.675,14.815,14.815,0,0,0,1.709-4.044,1.367,1.367,0,0,1,1.321-1.024h9.937a25.341,25.341,0,0,0,0-5.455h-9.937a1.365,1.365,0,0,1-1.32-1.024,14.809,14.809,0,0,0-1.711-4.044,1.365,1.365,0,0,1,.2-1.675l7-7a26.107,26.107,0,0,0-3.526-3.526l-7,6.995a1.363,1.363,0,0,1-1.674.2,14.906,14.906,0,0,0-4.045-1.712,1.362,1.362,0,0,1-1.023-1.32v-9.936a25.361,25.361,0,0,0-5.456,0v9.937a1.364,1.364,0,0,1-1.024,1.32,14.883,14.883,0,0,0-4.043,1.711,1.363,1.363,0,0,1-1.675-.2l-7-7a26.067,26.067,0,0,0-3.526,3.525l7,7a1.362,1.362,0,0,1,.2,1.675,14.823,14.823,0,0,0-1.71,4.044,1.365,1.365,0,0,1-1.32,1.024h-9.937a25.341,25.341,0,0,0,0,5.455h9.937a1.365,1.365,0,0,1,1.321,1.024Zm14.508-16.026a12.275,12.275,0,1,1-12.275,12.275,12.275,12.275,0,0,1,12.275-12.275Z" fill="#fff"/>
    <path id="Path_727" data-name="Path 727" d="M7163.527,2225.752l-5.963-5.964a25.763,25.763,0,0,0-3.7,8.786h8.471a17.6,17.6,0,0,1,1.193-2.822Z" fill="#fff"/>
    <circle id="Ellipse_91" data-name="Ellipse 91" cx="1.364" cy="1.364" r="1.364" transform="translate(7177.825 2232.666)" fill="#fff"/>
    <path id="Path_728" data-name="Path 728" d="M7162.335,2239.485h-8.47a25.752,25.752,0,0,0,3.7,8.785l5.963-5.963A17.7,17.7,0,0,1,7162.335,2239.485Z" fill="#fff"/>
    <path id="Path_729" data-name="Path 729" d="M7179.189,2243.576a9.547,9.547,0,1,0-9.547-9.547A9.547,9.547,0,0,0,7179.189,2243.576Zm0-13.638a4.092,4.092,0,1,1-4.091,4.092A4.092,4.092,0,0,1,7179.189,2229.938Z" fill="#fff"/>
    <path id="Path_730" data-name="Path 730" d="M7164.948,2255.654a25.747,25.747,0,0,0,8.785,3.7v-8.471a17.572,17.572,0,0,1-2.822-1.191Z" fill="#fff"/>
    <path id="Path_731" data-name="Path 731" d="M7194.85,2242.307l5.963,5.963a25.777,25.777,0,0,0,3.7-8.785h-8.47A17.7,17.7,0,0,1,7194.85,2242.307Z" fill="#fff"/>
    <path id="Path_732" data-name="Path 732" d="M7184.644,2250.882v8.471a25.772,25.772,0,0,0,8.786-3.7l-5.963-5.963A17.577,17.577,0,0,1,7184.644,2250.882Z" fill="#fff"/>
    <path id="Path_733" data-name="Path 733" d="M7196.042,2228.574h8.47a25.751,25.751,0,0,0-3.7-8.786l-5.962,5.964A17.642,17.642,0,0,1,7196.042,2228.574Z" fill="#fff"/>
    <path id="Path_734" data-name="Path 734" d="M7193.43,2212.405a25.777,25.777,0,0,0-8.787-3.7v8.47a17.688,17.688,0,0,1,2.822,1.192Z" fill="#fff"/>
  </g>
</svg>
