<svg xmlns="http://www.w3.org/2000/svg" width="105.715" height="71.411" viewBox="0 0 105.715 71.411">
  <g id="Group_685" data-name="Group 685" transform="translate(-6697.572 -2195.746)">
    <path id="Path_723" data-name="Path 723" d="M6803.287,2241.751c-.029-7.148-3.1-13.311-8.979-16.267-1.674-11.982-8.322-20.712-16.471-20.68l-38.076.14c-8.166.032-14.737,8.807-16.315,20.821-5.867,2.987-8.9,9.166-8.871,16.318.017,5.507,1.847,10.417,5.351,13.733l.048,11.341,14.108-.044-.016-6.9,49.87-.189.032,6.884,14.112-.048-.032-11.341c3.472-3.348,5.254-8.274,5.239-13.768Zm-63.51-32.566,38.076-.14c5.366-.032,10.072,6.319,11.858,14.905a21.838,21.838,0,0,0-2.756-.28v-.064a9.049,9.049,0,1,0-18.1.08l-36.918.14a20.685,20.685,0,0,0-3.925.361c1.718-8.606,6.4-14.986,11.762-15Zm44.363,14.437-12.466.064a6.233,6.233,0,0,1,12.466-.064Zm-54.219,24.308a5.913,5.913,0,1,1,5.9-5.927,5.9,5.9,0,0,1-5.9,5.927Zm11.826-9.086,34.336-.124a1.389,1.389,0,0,1,1.425,1.389,1.425,1.425,0,0,1-1.409,1.426l-34.336.124a1.408,1.408,0,1,1-.016-2.815Zm34.368,7.869-34.336.124a1.408,1.408,0,0,1-.016-2.815l34.352-.124a1.387,1.387,0,0,1,1.41,1.389,1.415,1.415,0,0,1-1.41,1.426Zm11.874,1a5.913,5.913,0,1,1,5.9-5.931,5.91,5.91,0,0,1-5.9,5.931Zm-71.615-42.285V2204.4c0-5.975-3.785-8.65-7.525-8.65H6707.5c-3.736,0-7.508,2.675-7.508,8.65v1.033h-2.423v18.3h21.212v-18.3Zm-14.157-1.033c0-3.957,2.034-6.412,5.286-6.412h1.346c3.256,0,5.29,2.455,5.29,6.412v1.033h-11.922Zm0,0" fill="#1aa9c9"/>
  </g>
</svg>
