<?xml version="1.0" encoding="UTF-8"?>
<svg width="55px" height="38px" viewBox="0 0 55 38" version="1.1" xmlns="http://www.w3.org/2000/svg" xmlns:xlink="http://www.w3.org/1999/xlink">
    <title>lockout</title>
    <g id="Member-Login" stroke="none" stroke-width="1" fill="none" fill-rule="evenodd">
        <g id="Custom-Preset-Copy-6" transform="translate(-799.000000, -883.000000)" fill="#FFFFFF" fill-rule="nonzero">
            <g id="lockout" transform="translate(799.000000, 883.000000)">
                <path d="M54.9999452,24.4808716 C54.9853218,20.6772531 53.3870201,17.3977763 50.3288115,15.8248194 C49.457862,9.44944827 45.9990374,4.80347841 41.7587515,4.8204597 L21.9485521,4.89553576 C17.7004621,4.91256371 14.2811788,9.58141489 13.4601762,15.974346 C10.4082109,17.5637988 8.82967995,20.8517896 8.84517373,24.6580687 C8.85361285,27.5879404 9.80572612,30.2006666 11.6287889,31.9651879 L11.6537624,38 L18.9943996,37.9765866 L18.9860751,34.3049347 L44.9324624,34.2048955 L44.9491114,37.8680334 L52.2913095,37.8424915 L52.2746605,31.8071473 C54.0810743,30.0255979 55.0082141,27.4048899 54.9999452,24.4808716 L54.9999452,24.4808716 Z M21.9568766,7.15227133 L41.7675963,7.07717787 C44.5594213,7.06021397 47.0073409,10.4402621 47.9365619,15.0090741 C47.4623105,14.9285312 46.9835737,14.8785903 46.5031892,14.8595474 L46.5031892,14.8254915 C46.4956612,13.1050014 45.5912626,11.5193106 44.1306717,10.6657334 C42.6700808,9.81215624 40.8751961,9.82037144 39.4221333,10.6872844 C37.9690705,11.5541974 37.0785844,13.1481034 37.0861126,14.8685935 L17.8778777,14.9430908 C17.1929542,14.9406601 16.5093547,15.0048032 15.8362971,15.1346552 C16.730139,10.5552008 19.1634907,7.1607853 21.9553158,7.15280345 L21.9568766,7.15227133 Z M45.0385996,14.8340055 L38.5522629,14.8685935 C38.5635073,13.0514944 40.0020471,11.5818493 41.7787162,11.5723753 C43.5553853,11.5629013 45.0088302,13.0171251 45.0385996,14.8340055 L45.0385996,14.8340055 Z M16.8310734,27.7694022 C15.1320883,27.7732099 13.751737,26.367706 13.7478998,24.6300477 C13.7440785,22.8923894 15.1182212,21.480536 16.8172058,21.47651 C18.5161904,21.4725011 19.8967014,22.877841 19.9007604,24.6154988 C19.904465,25.45064 19.5827063,26.2528873 19.0066288,26.8447741 C18.4305513,27.436661 17.6476362,27.7694022 16.8310734,27.7694022 Z M22.9839103,22.9339887 L40.8477404,22.8680054 C41.0426352,22.8629881 41.2312662,22.9386044 41.3709212,23.0777323 C41.5105761,23.2168601 41.5894418,23.4077307 41.5896604,23.6071249 C41.5896604,24.0229004 41.2625614,24.3612678 40.8560649,24.3659329 L22.9922348,24.4319162 C22.7261037,24.4405534 22.4763464,24.30082 22.3399158,24.0669588 C22.2034851,23.8330976 22.201867,23.5419387 22.3356897,23.3065064 C22.4695123,23.0710742 22.7177004,22.9284461 22.9839103,22.9339887 L22.9839103,22.9339887 Z M40.8643894,27.1212681 L23.0005593,27.1872514 C22.6034916,27.1789844 22.2851829,26.8486188 22.2829136,26.4424352 C22.2806684,26.0362517 22.5952847,25.7022068 22.9922348,25.6893239 L40.8643894,25.6233406 C41.0580713,25.6202002 41.2448669,25.6967734 41.3828128,25.835858 C41.5207586,25.9749427 41.5982883,26.1648769 41.5979998,26.3629922 C41.5992302,26.5631057 41.5225904,26.755506 41.3849693,26.8977572 C41.2473481,27.0400084 41.0600513,27.1204242 40.8643894,27.1212681 L40.8643894,27.1212681 Z M47.0421997,27.6533993 C45.3434863,27.6572032 43.963251,26.25213 43.9590317,24.5147505 C43.9548317,22.7773709 45.3282412,21.3653184 47.0269523,21.3605069 C48.7256633,21.35572 50.1066793,22.7599905 50.1118722,24.4973674 C50.1146184,25.3324036 49.7926124,26.1342924 49.2168054,26.7263007 C48.6409983,27.3183089 47.8586546,27.6518424 47.0421997,27.6533993 Z M9.7823135,5.15255139 L9.7823135,4.60286787 C9.7823135,1.42343024 7.81357218,0 5.86720292,0 L5.16742568,0 C3.22313754,0 1.26063959,1.42343024 1.26063959,4.60286787 L1.26063959,5.15255139 L0,5.15255139 L0,14.8904106 L11.0351489,14.8904106 L11.0351489,5.15255139 L9.7823135,5.15255139 Z M2.41722309,4.60286787 C2.41722309,2.49725536 3.47547358,1.19142441 5.16742568,1.19142441 L5.86720292,1.19142441 C7.56123615,1.19142441 8.62000692,2.49725536 8.62000692,4.60286787 L8.62000692,5.15255139 L2.41566225,5.15255139 L2.41722309,4.60286787 Z" id="Path_564"></path>
            </g>
        </g>
    </g>
</svg>