<svg xmlns="http://www.w3.org/2000/svg" width="128" height="84.908" viewBox="0 0 128 84.908">
  <g id="logo" transform="translate(0 -0.093)">
    <g id="Group_818" transform="translate(39)">
      <g id="Group_817">
        <g id="Group_816">
          <path id="Path_858" d="M16.272,50.653a26.411,26.411,0,1,1,10.1,2.009A26.332,26.332,0,0,1,16.272,50.653Z" transform="translate(0.163 0.093)" fill="#206b9d"/>
          <path id="Path_859" d="M26.979.937,26.935.759,28.212,0l.051.051a2.734,2.734,0,0,1-.194.239c-.749.744-1.5,1.485-2.251,2.229-1.039,1.033-2.072,2.072-3.112,3.1-.634.628-1.276,1.248-1.916,1.871-.474.461-.956.914-1.421,1.382-.319.322-.61.671-.923,1s-.625.633-.943.944c-.75.733-1.5,1.46-2.253,2.2-.2.192-.363.414-.559.606s-.39.34-.6.517c-.157-.166-.291-.313-.432-.454Q12.28,12.3,10.9,10.922C9.863,9.893,8.825,8.869,7.8,7.836c-.635-.637-1.248-1.3-1.887-1.93Q3.088,3.108.255.322A3.472,3.472,0,0,1,0,.014l0,0A2.018,2.018,0,0,1,.355.163,21.7,21.7,0,0,0,5,2.426,33.026,33.026,0,0,0,8.8,3.521a18.979,18.979,0,0,0,4.442.52c1.123-.02,2.252.023,3.369-.073A26.029,26.029,0,0,0,25.056,1.7c.489-.231.976-.469,1.453-.723a.4.4,0,0,1,.449-.018l.027.03Z" transform="translate(12.369 49.85)" fill="#206b9d"/>
          <path id="Path_860" d="M1.595,28.967A21,21,0,1,1,21,41.914,20.93,20.93,0,0,1,1.595,28.967Z" transform="translate(5.727 5.577)" fill="#fcfdfd"/>
          <path id="Path_861" d="M23.322,38.932A19.786,19.786,0,0,1,7.45,35.03a18.881,18.881,0,0,1-7.123-11.9A19.143,19.143,0,0,1,5.362,6.147,18.511,18.511,0,0,1,16.253.3,19.264,19.264,0,0,1,34.167,6.344a18.762,18.762,0,0,1,4.854,9.718,18.843,18.843,0,0,1,.153,6.1c-.149,1.055-.432,2.091-.656,3.135a2.616,2.616,0,0,1-.079.25,1.11,1.11,0,0,0-.157-.343c-.544-.548-1.107-1.078-1.654-1.622q-2.9-2.887-5.8-5.78c-.684-.683-1.366-1.368-2.055-2.045-.094-.092-.179-.249-.362-.164-.376-.579-.756-1.156-1.126-1.738a.467.467,0,0,0-.445-.279c-1.58.016-3.159.01-4.739.01-.459,0-.615.156-.615.617v6.506h-.8c0-.657-.033-1.3.011-1.935a1.029,1.029,0,0,0-.516-1.019c-2.306-1.625-4.592-3.277-6.885-4.922-.5-.36-1-.73-1.5-1.084a.428.428,0,0,0-.67.065c-.177.18-.34.373-.5.566-.255.3-.263.466-.007.763.35.4.721.791,1.069,1.2a.607.607,0,0,1,.134.355c.013.654.006,1.309.006,1.964,0,.625,0,1.25,0,1.874a.73.73,0,0,1-.655.794.739.739,0,0,1-.793-.605c-.02-.07-.041-.139-.067-.224l-.256.048a1.062,1.062,0,0,0,1.17,1.137,1.117,1.117,0,0,0,.957-1.136c0-1.063-.011-2.127-.015-3.19,0-.122.017-.243.031-.415a2.772,2.772,0,0,1,.256.209q1.655,1.768,3.3,3.542a.713.713,0,0,1,.229.367c.025.577.011,1.155.011,1.755H9.647c-.082,0-.164,0-.246,0a.507.507,0,0,0-.52.562c0,.841.007,1.681-.007,2.521a.5.5,0,0,0,.274.528.414.414,0,0,0,.056.121q1.246,1.292,2.5,2.58c.873.894,1.753,1.781,2.63,2.672l2.538,2.576q1.7,1.724,3.4,3.445,1.49,1.509,2.978,3.019C23.276,38.874,23.3,38.9,23.322,38.932Z" transform="translate(7.067 6.64)" fill="#2481bb"/>
          <path id="Path_862" d="M19.266.025c.183-.085.269.072.362.164C20.317.866,21,1.552,21.683,2.234l5.8,5.78c.547.545,1.11,1.075,1.654,1.622a1.11,1.11,0,0,1,.157.343c-.219.609-.412,1.23-.663,1.826a18.739,18.739,0,0,1-1.674,3.118,19.891,19.891,0,0,1-3.406,3.893A19.551,19.551,0,0,1,16.155,22.9c-.622.188-1.262.314-1.894.467a.276.276,0,0,1-.088-.009c-.024-.028-.046-.059-.072-.085l-2.978-3.019q-1.7-1.724-3.4-3.445-1.27-1.287-2.537-2.576c-.877-.891-1.757-1.778-2.63-2.672Q1.3,10.278.056,8.982A.414.414,0,0,1,0,8.861H2.088A3.127,3.127,0,0,0,4.91,11.669,3.113,3.113,0,0,0,8.105,9h5.714a3.022,3.022,0,0,0,.979,1.9,2.933,2.933,0,0,0,2.017.772,2.854,2.854,0,0,0,1.7-.519,3.076,3.076,0,0,0,1.3-2.253c.378,0,.735.009,1.091,0s.463-.142.463-.483c0-1.636,0-3.272-.005-4.909a.813.813,0,0,0-.124-.41C20.589,2.073,19.926,1.049,19.266.025Z" transform="translate(16.216 22.213)" fill="#1e5d89"/>
          <path id="Path_863" d="M17.089,15.628a2.938,2.938,0,0,1-2.018-.772,3.026,3.026,0,0,1-.979-1.9H8.379a3.113,3.113,0,0,1-3.2,2.664,3.128,3.128,0,0,1-2.822-2.807H.274A.5.5,0,0,1,0,12.284c.014-.84.006-1.68.007-2.521A.507.507,0,0,1,.526,9.2c.082-.006.164,0,.246,0H7.115c0-.6.013-1.177-.011-1.755a.716.716,0,0,0-.229-.367Q5.228,5.3,3.572,3.534a2.605,2.605,0,0,0-.257-.21c-.013.172-.032.293-.032.415,0,1.064.013,2.128.015,3.191a1.118,1.118,0,0,1-.958,1.136,1.063,1.063,0,0,1-1.17-1.137l.257-.048c.026.086.047.154.067.224a.731.731,0,0,0,1.448-.189c.006-.625,0-1.249,0-1.874,0-.655.006-1.31-.006-1.964a.606.606,0,0,0-.134-.355c-.347-.407-.717-.793-1.068-1.2-.257-.3-.248-.461.007-.762C1.907.57,2.07.376,2.247.2a.428.428,0,0,1,.67-.065c.507.354,1,.724,1.5,1.084C6.712,2.859,9,4.512,11.3,6.137a1.03,1.03,0,0,1,.517,1.019c-.044.636-.011,1.278-.011,1.935h.8V2.584c0-.461.157-.617.616-.617,1.58,0,3.159.005,4.738-.01a.466.466,0,0,1,.445.279c.372.582.751,1.158,1.128,1.739C20.2,5,20.864,6.023,21.516,7.052a.809.809,0,0,1,.124.41c.009,1.636.005,3.272.005,4.909,0,.341-.114.471-.463.482s-.714,0-1.092,0a3.073,3.073,0,0,1-1.3,2.253,2.854,2.854,0,0,1-1.642.52Z" transform="translate(15.942 18.263)" fill="#fff"/>
        </g>
        <path id="Path_864" d="M0,0C.7,0,1.383,0,2.067.007a.309.309,0,0,1,.2.144Q3.156,1.525,4.038,2.9c.107.166.212.334.332.523H0Z" transform="translate(31.39 22.149)" fill="#1e5d89"/>
        <path id="Path_865" d="M2.956,1.466A1.463,1.463,0,1,1,2.523.424,1.461,1.461,0,0,1,2.956,1.466Z" transform="translate(19.746 29.868)" fill="#215f8a"/>
        <path id="Path_866" d="M2.956,1.465A1.463,1.463,0,1,1,2.522.423a1.46,1.46,0,0,1,.434,1.042Z" transform="translate(31.549 29.912)" fill="#215f8a"/>
      </g>
    </g>
    <text id="Drive_Roadside" data-name="Drive | Roadside" transform="translate(0 82)" font-size="14" font-family="Lato-Bold, Lato" font-weight="700"><tspan x="0" y="0">DRIVE</tspan><tspan y="0" xml:space="preserve" font-family="Lato-Regular, Lato" font-weight="400">  |  ROADSIDE</tspan></text>
  </g>
</svg>
