<svg xmlns="http://www.w3.org/2000/svg" width="135" height="13.203" viewBox="0 0 135 13.203">
  <g id="Group_732" data-name="Group 732" transform="translate(7894 -7199.932)">
    <rect id="Rectangle_82" data-name="Rectangle 82" width="45" height="1" transform="translate(-7894 7205)" fill="#fff"/>
    <rect id="Rectangle_83" data-name="Rectangle 83" width="45" height="1" transform="translate(-7804 7205)" fill="#fff"/>
    <path id="Path_71" data-name="Path 71" d="M3.2-6.462A7.38,7.38,0,0,1,2.736-3.8,6.124,6.124,0,0,1,1.427-1.715,5.9,5.9,0,0,1-.6-.351,6.811,6.811,0,0,1-3.217.135,6.82,6.82,0,0,1-5.832-.351,5.841,5.841,0,0,1-7.857-1.715,6.216,6.216,0,0,1-9.166-3.8a7.316,7.316,0,0,1-.468-2.66,7.326,7.326,0,0,1,.468-2.655A6.207,6.207,0,0,1-7.857-11.21a5.894,5.894,0,0,1,2.025-1.368,6.765,6.765,0,0,1,2.615-.49,6.756,6.756,0,0,1,2.619.49A5.951,5.951,0,0,1,1.427-11.21,6.115,6.115,0,0,1,2.736-9.117,7.39,7.39,0,0,1,3.2-6.462Zm-1.962,0a6.355,6.355,0,0,0-.315-2.07,4.411,4.411,0,0,0-.9-1.557,3.881,3.881,0,0,0-1.4-.981,4.756,4.756,0,0,0-1.84-.342,4.756,4.756,0,0,0-1.841.342,3.924,3.924,0,0,0-1.409.981,4.374,4.374,0,0,0-.9,1.557,6.355,6.355,0,0,0-.315,2.07,6.345,6.345,0,0,0,.315,2.075,4.38,4.38,0,0,0,.9,1.553,3.876,3.876,0,0,0,1.409.977,4.812,4.812,0,0,0,1.841.337,4.812,4.812,0,0,0,1.84-.337,3.834,3.834,0,0,0,1.4-.977,4.417,4.417,0,0,0,.9-1.553A6.345,6.345,0,0,0,1.238-6.462Zm5.49-.927A4.184,4.184,0,0,1,7.79-8.8a2.27,2.27,0,0,1,1.494-.513,2.275,2.275,0,0,1,.563.068,1.449,1.449,0,0,1,.463.2l-.117,1.323a.285.285,0,0,1-.3.243,2.159,2.159,0,0,1-.378-.05,2.8,2.8,0,0,0-.54-.049,2.12,2.12,0,0,0-.747.122,1.745,1.745,0,0,0-.58.36,2.451,2.451,0,0,0-.455.585,5.856,5.856,0,0,0-.369.787V0H5.071V-9.144H6.08a.557.557,0,0,1,.391.1.68.68,0,0,1,.148.365Z" transform="translate(-7826 7213)" fill="#fff"/>
  </g>
</svg>
