<svg xmlns="http://www.w3.org/2000/svg" width="18.438" height="24.199" viewBox="0 0 18.438 24.199">
  <path id="PASSWORD" d="M13.219,1A6.9,6.9,0,0,0,6.3,7.914V9.066H4V25.2H22.438V9.066h-2.3V7.914A6.9,6.9,0,0,0,13.219,1Zm0,2.3a4.514,4.514,0,0,1,4.609,4.609V9.066H8.609V7.914A4.514,4.514,0,0,1,13.219,3.3ZM8.609,15.981a1.152,1.152,0,1,1-1.152,1.152A1.156,1.156,0,0,1,8.609,15.981Zm4.609,0a1.152,1.152,0,1,1-1.152,1.152A1.156,1.156,0,0,1,13.219,15.981Zm4.609,0a1.152,1.152,0,1,1-1.152,1.152A1.156,1.156,0,0,1,17.828,15.981Z" transform="translate(-4 -1)" fill="#fff"/>
</svg>
