<svg id="payment" xmlns="http://www.w3.org/2000/svg" width="70" height="53" viewBox="0 0 70 53">
  <path id="Shape" d="M53.667,53H16.333a6.991,6.991,0,0,1-4.94-2.035,6.818,6.818,0,0,1-2.061-4.878V16.131H8.167A8.126,8.126,0,0,1,0,8.065,8.125,8.125,0,0,1,8.167,0H61.834A8.125,8.125,0,0,1,70,8.065a8.126,8.126,0,0,1-8.167,8.066H60.666V46.087a6.818,6.818,0,0,1-2.061,4.878A6.99,6.99,0,0,1,53.667,53ZM51.333,4.609V48.391h2.334A2.294,2.294,0,0,0,56,46.087V4.609ZM14,4.609V46.087a2.294,2.294,0,0,0,2.333,2.3H42V4.609H37.333V16.131H32.666V4.609Z" fill="#11a9c9"/>
</svg>
