<svg xmlns="http://www.w3.org/2000/svg" width="22" height="22" viewBox="0 0 22 22">
  <path id="PRICING" d="M15,4A11,11,0,1,0,26,15,11,11,0,0,0,15,4Zm3.884,14.143a3.44,3.44,0,0,1-3.094,3.691v1.829H14.413V21.834c-.429-.059-3.315-.375-3.315-4.352h2.6c0,2.349,1.211,2.251,1.4,2.251.2,0,1.194-.037,1.194-1.572,0-3.065-4.756-1.705-4.756-6.3a3.484,3.484,0,0,1,3.076-3.7V6.2h1.386v2c.441.084,2.911.648,2.911,4.26H16.3c0-1.888-.8-2.185-1.139-2.185-.184,0-1.038.048-1.038,1.6C14.128,14.579,18.885,13.736,18.885,18.143Z" transform="translate(-4 -4)" fill="#fff"/>
</svg>
