<svg xmlns="http://www.w3.org/2000/svg" width="25.258" height="25.712" viewBox="0 0 25.258 25.712">
  <g id="Get_assistance" data-name="Get assistance" transform="translate(-5551.477 -3802.695)">
    <path id="Path_2" data-name="Path 2" d="M4235.661,3207.52c-.161-1.408-3.948,0-3.948,0l-.222,2c-.085-.046-.167-.091-.255-.13l-.959-4.175a3.858,3.858,0,0,0-4.034-3.374h-5.615a5.046,5.046,0,0,1-.157.68h6.15a2.8,2.8,0,0,1,2.765,2.176l1.029,4.121c-.064,0-.131-.009-.195-.009h-11.91l0,4.018h7.376v.9h-7.376v.262h7.3v.9h-7.3l0,3.374h7.877v2.136c0,.868,1.074,1.574,2.4,1.574s2.4-.7,2.4-1.574v-2.382a2.729,2.729,0,0,0,1.917-2.453v-3.822a2.547,2.547,0,0,0-1.213-2.094l3.966-.212a5.453,5.453,0,0,0,0-1.912Zm-4.546,7.3h-4.328v-2.057h4.328Zm0,0" transform="translate(1341.005 605.491)" fill="#fff"/>
    <path id="Path_3" data-name="Path 3" d="M4211.47,3196.327a4.651,4.651,0,0,0-2.34-4.033v3.724l-2.312,1.334-2.314-1.338v-3.72a4.648,4.648,0,0,0,.212,8.18v15.339a2.2,2.2,0,0,0,4.391,0l-.009-15.436a4.654,4.654,0,0,0,2.373-4.05Zm-4.076,20.457a.836.836,0,1,1,0-1.186.838.838,0,0,1,0,1.186Zm0,0" transform="translate(1349.311 610.401)" fill="#fff"/>
  </g>
</svg>
