<svg xmlns="http://www.w3.org/2000/svg" width="22.931" height="19" viewBox="0 0 22.931 19">
  <path id="select_car" d="M21.718,19H19.344a1.211,1.211,0,0,1-1.212-1.212V15.5H4.943v2.282A1.214,1.214,0,0,1,3.731,19H1.212A1.214,1.214,0,0,1,0,17.787V13.218a1.211,1.211,0,0,1,.081-.435A3,3,0,0,1,0,12.09V10.554A3.061,3.061,0,0,1,.472,8.932L2.557,3.984C3.27,1.968,4.181,0,6.757,0h9.614c2.506,0,3.5,1.922,4.2,4l.014.044,1.993,4.937c.031.121.051.213.067.3a3.031,3.031,0,0,1,.287,1.276v1.534a3.015,3.015,0,0,1-.082.695,1.223,1.223,0,0,1,.082.434v4.568A1.212,1.212,0,0,1,21.718,19Zm-4.139-8.056a.867.867,0,0,0,0,1.733h2.656a.867.867,0,0,0,0-1.733Zm-14.948,0a.867.867,0,0,0,0,1.733H5.287a.867.867,0,0,0,0-1.733Zm5.855.46a.55.55,0,0,0,0,1.1h6.178a.55.55,0,0,0,0-1.1ZM19,7.145h0a4.428,4.428,0,0,1,1.531.273L19.084,4.472c-.724-2.15-1.435-2.911-2.716-2.911H6.753c-1.292,0-1.928.683-2.722,2.921l-1.5,2.886a4.449,4.449,0,0,1,1.391-.223H19Z" fill="#33495f"/>
</svg>
