<?xml version="1.0" encoding="UTF-8"?>
<svg width="50px" height="47px" viewBox="0 0 50 47" version="1.1" xmlns="http://www.w3.org/2000/svg" xmlns:xlink="http://www.w3.org/1999/xlink">
    <title>Tire</title>
    <g id="Member-Login" stroke="none" stroke-width="1" fill="none" fill-rule="evenodd">
        <g id="Custom-Preset-Copy-6" transform="translate(-935.000000, -735.000000)" fill="#FFFFFF" fill-rule="nonzero">
            <g id="Tire" transform="translate(935.000000, 735.000000)">
                <path d="M0,25.8245455 C0.133570046,29.7234 1.183608,33.5357213 3.06481481,36.9518182 L4.82407407,35.7760364 L5.81296296,37.2596727 L3.97777778,38.4855273 C4.75809794,39.6863872 5.63971676,40.8180891 6.61296296,41.8682182 L8.87962963,41.8682182 L8.87962963,43.6504364 L5.76481481,43.6504364 C5.27627422,43.6322062 4.81684811,43.8828222 4.56717111,44.3037486 C4.31749411,44.7246749 4.31749411,45.2485978 4.56717111,45.6695242 C4.81684811,46.0904505 5.27627422,46.3410665 5.76481481,46.3228364 L11.0740741,46.3228364 L12.5907407,44.0454545 L14.0722222,45.0339273 L13.2148148,46.3228364 L43.1481481,46.3228364 C43.8268145,46.3243239 44.3986258,45.8157215 44.4772625,45.1406442 C44.5558992,44.4655669 44.1163407,43.8388115 43.4555556,43.6838182 L43.3851852,43.6838182 C43.3078492,43.6673412 43.2290629,43.6586434 43.15,43.6578545 L37.3648148,43.6578545 L37.3648148,41.8756364 L43.2,41.8756364 C44.168976,40.8240411 45.0468346,39.6917742 45.8240741,38.4910909 L43.9907407,37.2670909 L44.9796296,35.7834545 L46.7407407,36.9610909 C48.6217526,33.5449145 49.6717775,29.7326409 49.8055556,25.8338182 L47.1555556,25.8338182 L47.1555556,24.0516 L49.8018519,24.0516 C49.669254,20.1525966 48.6191548,16.3400528 46.737037,12.9243273 L44.9796296,14.0982545 L43.9907407,12.6146182 L45.8166667,11.3943273 C43.8994994,8.43861825 41.3833782,5.91946908 38.4314815,4.00025455 L37.212963,5.82883636 L35.7314815,4.84036364 L36.9037037,3.0804 C33.4933127,1.19437567 29.6861699,0.142075865 25.7925926,0.00927272727 L25.7925926,1.76923636 L24.0111111,1.76923636 L24.0111111,0.00927272727 C20.1175338,0.142075865 16.310391,1.19437567 12.9,3.0804 L14.0722222,4.84036364 L12.5907407,5.82883636 L11.3722222,4.00025455 C8.42113484,5.91984502 5.90569129,8.4389474 3.98888889,11.3943273 L5.81481481,12.6146182 L4.82592593,14.0982545 L3.06851852,12.9243273 C1.1860098,16.3398933 0.135884205,20.1525328 0.00370370371,24.0516 L2.65185185,24.0516 L2.65185185,25.8338182 L0,25.8245455 Z M24.8981481,6.21458182 C35.2207592,6.21458182 43.5888889,14.5948833 43.5888889,24.9325091 C43.5888889,35.2701349 35.2207592,43.6504364 24.8981481,43.6504364 C14.5755371,43.6504364 6.20740741,35.2701349 6.20740741,24.9325091 C6.21455716,14.5978506 14.5785001,6.22174197 24.8981481,6.21458182 L24.8981481,6.21458182 Z" id="Path_473"></path>
                <path d="M21.3388889,13.9202182 L21.3388889,8.3844 C19.2920718,8.82295688 17.3450885,9.64062134 15.5981481,10.7953091 L19.487037,14.6898545 C20.0805397,14.3793136 20.700222,14.1217714 21.3388889,13.9202182 L21.3388889,13.9202182 Z" id="Path_474"></path>
                <path d="M15.4314815,27.3860727 C15.6691683,28.3172109 16.0436234,29.2078355 16.5425926,30.0288 C16.7584588,30.3793953 16.7047545,30.8327047 16.412963,31.1229818 L11.8481481,35.6962909 C12.5402018,36.5365079 13.3110034,37.3084306 14.15,38.0014909 L18.7148148,33.4281818 C19.0049857,33.1366147 19.4571663,33.0828881 19.8074074,33.2983636 C20.6273789,33.7976681 21.5166501,34.1726427 22.4462963,34.4110909 C22.8399414,34.5126518 23.1149917,34.8682193 23.1148148,35.2753091 L23.1148148,41.7662182 C24.2977268,41.8954277 25.4911621,41.8954277 26.6740741,41.7662182 L26.6740741,35.2753091 C26.6738972,34.8682193 26.9489475,34.5126518 27.3425926,34.4110909 C28.2723521,34.1729803 29.1616719,33.7979852 29.9814815,33.2983636 C30.332296,33.0825984 30.7851498,33.1363139 31.0759259,33.4281818 L35.6388889,38.0014909 C36.4776495,37.3081705 37.2484274,36.5362715 37.9407407,35.6962909 L33.3759259,31.1229818 C33.0854263,30.8320756 33.0318331,30.3797042 33.2462963,30.0288 C33.7456087,29.2080112 34.120086,28.3173339 34.3574074,27.3860727 C34.4588207,26.9918551 34.8138718,26.7164047 35.2203704,26.7165818 L41.7018519,26.7165818 C41.8284597,25.531819 41.8284597,24.3369083 41.7018519,23.1521455 L35.2203704,23.1521455 C34.8138718,23.1523226 34.4588207,22.8768722 34.3574074,22.4826545 C34.1202432,21.5513404 33.7457563,20.6606404 33.2462963,19.8399273 C33.0322371,19.488297 33.0857648,19.0357128 33.3759259,18.7438909 L37.9407407,14.1724364 C37.2486871,13.3322194 36.4778855,12.5602966 35.6388889,11.8672364 L31.0759259,16.4386909 C30.7846756,16.7292431 30.3331625,16.7835647 29.9814815,16.5703636 C29.1609598,16.0708427 28.2710454,15.6958601 27.3407407,15.4576364 C26.9484979,15.3555375 26.6745223,15.0011376 26.6740741,14.5952727 L26.6740741,8.10436364 C25.4910969,7.97635996 24.297792,7.97635996 23.1148148,8.10436364 L23.1148148,14.5952727 C23.1148021,15.0018968 22.8396539,15.3568275 22.4462963,15.4576364 C21.5167977,15.6965234 20.6275892,16.0714716 19.8074074,16.5703636 C19.4562992,16.7832726 19.0054614,16.7289403 18.7148148,16.4386909 L14.15,11.8672364 C13.3108119,12.5600856 12.539991,13.3320276 11.8481481,14.1724364 L16.412963,18.7438909 C16.7044069,19.03509 16.7580444,19.4886025 16.5425926,19.8399273 C16.0434765,20.6608166 15.6690119,21.5514637 15.4314815,22.4826545 C15.3300681,22.8768722 14.9750171,23.1523226 14.5685185,23.1521455 L8.08703704,23.1521455 C7.9604292,24.3369083 7.9604292,25.531819 8.08703704,26.7165818 L14.5685185,26.7165818 C14.9750171,26.7164047 15.3300681,26.9918551 15.4314815,27.3860727 L15.4314815,27.3860727 Z M24.8981481,16.9115998 C28.1385085,16.9108499 31.0602187,18.8650578 32.30077,21.8628997 C33.5413212,24.8607415 32.8563818,28.3117793 30.5653658,30.6066582 C28.2743498,32.9015371 24.8284828,33.5882707 21.8347084,32.346608 C18.840934,31.1049454 16.8888889,28.1794374 16.8888889,24.9343636 C16.8939892,20.5063549 20.4765721,16.9177315 24.8981481,16.9115998 Z" id="Path_475"></path>
                <path d="M14.6777778,19.5246545 L10.7888889,15.6301091 C9.63587824,17.3795905 8.81940139,19.3294057 8.38148148,21.3792 L13.9092593,21.3792 C14.1107896,20.7397026 14.3679481,20.1191423 14.6777778,19.5246545 Z" id="Path_476"></path>
                <ellipse id="Ellipse_58" cx="24.9" cy="24.9343636" rx="1" ry="1"></ellipse>
                <path d="M13.9018519,28.4988 L8.37407407,28.4988 C8.81182723,30.5486467 9.62831666,32.4984919 10.7814815,34.2478909 L14.6703704,30.3533455 C14.3610705,29.7586098 14.1039316,29.1380967 13.9018519,28.4988 L13.9018519,28.4988 Z" id="Path_477"></path>
                <path d="M24.8981481,31.1804727 C28.3386776,31.1804727 31.1277778,28.3873157 31.1277778,24.9417818 C31.1277778,21.496248 28.3386776,18.7030909 24.8981481,18.7030909 C21.4576187,18.7030909 18.6685185,21.496248 18.6685185,24.9417818 C18.6715815,28.3860443 21.4588883,31.1774053 24.8981481,31.1804727 Z M24.8981481,22.2675273 C26.372953,22.2675273 27.5685185,23.4648318 27.5685185,24.9417818 C27.5685185,26.4187318 26.372953,27.6160364 24.8981481,27.6160364 C23.4233433,27.6160364 22.227772,26.4187318 22.227772,24.9417818 C22.2263028,24.2313913 22.5069343,23.5495637 23.0078325,23.0465454 C23.5087307,22.5435271 24.1887881,22.2605999 24.8981481,22.2601091 L24.8981481,22.2675273 Z" id="Path_478"></path>
                <path d="M15.6055556,39.066 C17.3528857,40.2199562 19.299727,41.0375611 21.3462963,41.4769091 L21.3462963,35.9559273 C20.7114211,35.7499736 20.0955415,35.4893643 19.5055556,35.1770182 L15.6055556,39.066 Z" id="Path_479"></path>
                <path d="M35.1203704,30.3440727 L39.0092593,34.2386182 C40.1627715,32.4894049 40.9792893,30.5394919 41.4166667,28.4895273 L35.8888889,28.4895273 C35.6872068,29.1289692 35.4300537,29.7495165 35.1203704,30.3440727 Z" id="Path_480"></path>
                <path d="M28.4592593,35.9559273 L28.4592593,41.4898909 C30.5057374,41.0502523 32.4525268,40.2326693 34.2,39.0789818 L30.3111111,35.1844364 C29.7173812,35.4949919 29.0977525,35.7531324 28.4592593,35.9559273 Z" id="Path_481"></path>
                <path d="M35.8962963,21.3699273 L41.4240741,21.3699273 C40.9865296,19.3200151 40.1700244,17.3701322 39.0166667,15.6208364 L35.1277778,19.5153818 C35.4379812,20.1096946 35.6951536,20.7302885 35.8962963,21.3699273 Z" id="Path_482"></path>
                <path d="M34.1925926,10.8008727 C32.4455084,9.64645484 30.4985776,8.82881239 28.4518519,8.38996364 L28.4518519,13.9257818 C29.087086,14.1307692 29.7030483,14.3914136 30.2925926,14.7046909 L34.1925926,10.8008727 Z" id="Path_483"></path>
            </g>
        </g>
    </g>
</svg>