<?xml version="1.0" encoding="UTF-8"?>
<svg width="71px" height="36px" viewBox="0 0 71 36" version="1.1" xmlns="http://www.w3.org/2000/svg" xmlns:xlink="http://www.w3.org/1999/xlink">
    <title>tow</title>
    <g id="Member-Login" stroke="none" stroke-width="1" fill="none" fill-rule="evenodd">
        <g id="Custom-Preset-Copy-6" transform="translate(-1055.000000, -742.000000)" fill="#FFFFFF" fill-rule="nonzero">
            <g id="tow" transform="translate(1055.000000, 742.000000)">
                <path d="M70.4855072,28.9437793 C70.1688423,29.3665153 69.655845,29.5934841 69.1312705,29.5429433 C67.6102396,29.5146756 66.088104,29.5335208 64.7040431,29.5335208 C64.3893862,30.5603419 63.9930334,31.5601328 63.5188098,32.523244 C62.2268322,34.941774 59.5557292,36.2799781 56.8531153,35.8627106 C53.8707016,35.5168472 51.9591954,33.7520569 51.0053753,30.918083 C50.9910156,30.8748501 50.9755512,30.8316171 50.9650575,30.78783 C50.6618455,29.5335208 50.6618455,29.5335208 49.4108886,29.5335208 L18.4512256,29.5335208 C18.3153087,31.138094 17.6326491,32.6466708 16.5181797,33.8052666 C14.7597691,35.6359146 12.1397967,36.3461654 9.70207068,35.653052 C7.2643447,34.9599386 5.40494889,32.9760788 4.86467446,30.4918507 C4.63988884,29.5412805 4.67302677,29.534075 3.66011072,29.5335208 C3.02275787,29.5335208 2.38430043,29.5507031 1.74805218,29.5252067 C1.41072824,29.5497013 1.07987236,29.4232707 0.844212265,29.1798207 C0.608552167,28.9363706 0.492203117,28.6008135 0.526367178,28.2631378 C0.510534612,26.4351609 0.510534612,24.607184 0.526367178,22.7792071 C0.476338798,22.4030803 0.611347393,22.0259856 0.888466439,21.7678218 C1.16558549,21.5096581 1.55033019,21.4025513 1.92036942,21.4805565 C2.69911076,21.5282236 2.84546995,21.1285961 3.0111596,20.5261065 C3.93626013,17.1605893 6.19350544,15.3514575 9.66801736,15.2018051 C10.9861179,15.1173653 12.3082425,15.1173653 13.626343,15.2018051 C14.6863131,15.3189439 15.7260658,14.8492169 16.3414441,13.9752093 C18.8555083,11.022622 21.4728525,8.15982621 24.0266823,5.24160356 C24.4278596,4.74188094 25.0452904,4.46800333 25.6835787,4.50664379 C28.0507315,4.54100842 30.4189889,4.51994623 32.7866939,4.51994623 L33.5162807,4.51994623 C33.771995,3.19746204 34.0774163,2.77455532 34.738518,2.78564069 C35.3847076,2.79672605 35.6707984,3.20633033 35.9055254,4.52493464 C36.2661765,4.52493464 36.6467104,4.50719805 37.0255874,4.52936879 C37.2807153,4.51914833 37.5285211,4.6162272 37.7092769,4.79720675 C37.8900328,4.9781863 37.9873421,5.22664962 37.9777506,5.48271028 C37.9921104,5.71051455 37.9871397,5.93942737 37.9871397,6.16778591 C37.9871397,11.1931519 37.9871397,16.2198112 37.9871397,21.2477638 L37.9871397,22.1312675 L40.0361683,22.1312675 L40.0361683,16.0581496 C40.6818057,16.0581496 41.2440459,16.0276649 41.8035246,16.0670179 C42.2773813,16.1090992 42.742544,15.9202262 43.0539291,15.5593081 C47.8865439,10.681747 52.7298364,5.81619505 57.5838067,0.962652215 C57.7852305,0.745328278 58.0037229,0.544591954 58.2371762,0.362379636 C58.9974852,-0.189577851 60.0452485,-0.102815234 60.7051243,0.566744155 C61.3650002,1.23630354 61.4399154,2.2886945 60.881583,3.04559252 C60.6984709,3.27873333 60.4983564,3.49790272 60.282891,3.70129193 C55.5029288,8.50088598 50.7192845,13.2969697 45.9319583,18.089543 C45.5917286,18.389441 45.409856,18.831097 45.4398601,19.2845455 C45.4779687,20.2179333 45.4503537,21.1540925 45.4503537,22.1417986 L59.9382566,22.1417986 C59.9382566,21.8092376 59.9299721,21.4561687 59.9382566,21.103654 C59.9609008,20.3276784 60.3557945,19.8643101 60.9948042,19.8487906 C61.6697134,19.8321625 62.1027157,20.3027363 62.1364059,21.1075339 C62.1502134,21.4439748 62.1364059,21.7809699 62.1364059,22.1961169 C62.859365,22.1961169 63.517153,22.155101 64.1661041,22.2127449 C64.5220459,22.2287621 64.8630115,22.361119 65.1370454,22.5896474 C66.9391965,24.4580859 68.7048958,26.3625518 70.4816412,28.2559323 L70.4855072,28.9437793 Z M22.2698197,14.4895703 L33.6626399,14.4895703 L33.6626399,7.97414633 C31.7809578,7.97414633 29.9418027,7.96860365 28.1031999,7.98467743 C27.9279915,8.00362403 27.7664053,8.08836825 27.6508672,8.22190427 C25.8785402,10.2732513 24.1161547,12.3345751 22.270372,14.4895703 L22.2698197,14.4895703 Z M61.0759921,29.0158342 C61.0595426,27.1142516 59.5150877,25.5834274 57.6202039,25.5905205 C55.7253201,25.597663 54.1923273,27.140047 54.19006,29.0416999 C54.1877978,30.9433528 55.7171125,32.4894099 57.6119739,32.5010733 C58.5323175,32.5012236 59.414888,32.133812 60.0648915,31.4799307 C60.7148951,30.8260494 61.0788923,29.9394567 61.0765557,29.0158342 L61.0759921,29.0158342 Z M15.0181361,29.0546329 C15.0232762,27.6535168 14.1857165,26.3876684 12.8969599,25.848787 C11.6082034,25.3099056 10.1228149,25.604435 9.1351139,26.5947026 C8.14741289,27.5849702 7.85249751,29.0753707 8.3882209,30.3692421 C8.92394428,31.6631135 10.1844863,32.5048804 11.5806282,32.5010862 C13.4708037,32.4839585 14.9995077,30.9515283 15.0186884,29.0546329 L15.0181361,29.0546329 Z" id="Path_576"></path>
            </g>
        </g>
    </g>
</svg>