<?xml version="1.0" encoding="UTF-8"?>
<svg width="23px" height="16px" viewBox="0 0 23 16" version="1.1" xmlns="http://www.w3.org/2000/svg" xmlns:xlink="http://www.w3.org/1999/xlink">
    <title>Path_863</title>
    <g id="Member-Login" stroke="none" stroke-width="1" fill="none" fill-rule="evenodd">
        <g id="Custom-Preset" transform="translate(-949.000000, -31.000000)" fill="#FFFFFF" fill-rule="nonzero">
            <g id="Group-6" transform="translate(895.000000, 13.092501)">
                <g id="Group_816" transform="translate(39.162683, 0.000000)">
                    <path d="M35.319791,22.1453653 C35.9798974,23.17056 36.6430813,24.1933653 37.2956652,25.22368 C37.3729509,25.3467036 37.4158651,25.4881243 37.4199587,25.63328 C37.4283361,27.2694613 37.4254297,28.9056427 37.4252587,30.541824 C37.4252587,30.8831573 37.3103684,31.0126933 36.9621071,31.0244693 C36.6058103,31.0365867 36.2490006,31.0272 35.8711619,31.0272 C35.7920048,31.9333308 35.3153113,32.7580778 34.5690716,33.28 C34.0720647,33.6297188 33.4760568,33.8116329 32.8681135,33.799168 C32.121645,33.8076757 31.4000689,33.5314569 30.8506942,33.0269013 C30.3032168,32.5334727 29.9549402,31.8575652 29.87122,31.126016 L24.157991,31.126016 C23.9394942,32.899072 22.2202426,33.9049813 20.9629458,33.790464 C19.4699396,33.6503216 18.2863243,32.4727276 18.1409523,30.9828267 L16.0529232,30.9828267 C15.8292974,30.8749653 15.7749297,30.696448 15.7793748,30.455296 C15.7933942,29.6149333 15.7855297,28.7744 15.7860426,27.9338667 C15.7697145,27.7880149 15.8176019,27.6422687 15.917293,27.5344028 C16.0169842,27.426537 16.1586647,27.3671707 16.3056135,27.3716907 C16.3871652,27.3652053 16.4694006,27.36896 16.5514652,27.36896 L22.8943684,27.36896 C22.8943684,26.7690667 22.9080458,26.19136 22.8834264,25.6136533 C22.8469192,25.4705905 22.7668076,25.3423753 22.6541587,25.24672 C21.5566598,24.0628622 20.4556845,22.8821902 19.3512329,21.704704 C19.2699971,21.6299781 19.1843606,21.5601648 19.0947813,21.4956373 C19.0812748,21.667328 19.0631523,21.7890133 19.0636652,21.9106987 C19.0670845,22.9741227 19.0766587,24.0375467 19.0785394,25.1009707 C19.0940564,25.6670987 18.6825667,26.1551756 18.12112,26.2365867 C17.8074532,26.2693374 17.4954201,26.1613042 17.2694292,25.9417113 C17.0434383,25.7221183 16.9268445,25.4136593 16.9511877,25.099776 L17.2076394,25.05216 C17.2331135,25.1374933 17.2541426,25.20576 17.2744877,25.2760747 C17.3967297,25.6930133 17.7019071,25.9264853 18.0676071,25.8814293 C18.471091,25.8317653 18.7172845,25.5412907 18.7227555,25.0876587 C18.7290813,24.4630187 18.7244652,23.838208 18.7244652,23.2133973 C18.7244652,22.55872 18.7311329,21.9040427 18.7183103,21.2498773 C18.7129385,21.1202433 18.6661478,20.9957277 18.5847845,20.8945493 C18.2373781,20.4875093 17.86672,20.10112 17.5160652,19.6962987 C17.2596135,19.3998507 17.26782,19.2354987 17.5230748,18.93376 C17.6858361,18.740736 17.8492813,18.5472 18.0262329,18.3673173 C18.2616555,18.128384 18.4167232,18.1080747 18.6957426,18.3026347 C19.20232,18.655744 19.6967587,19.0262613 20.19872,19.3861973 C22.4908845,21.0304 24.7774071,22.6827947 27.083249,24.3078827 C27.4667297,24.5782187 27.6315426,24.8564053 27.5994006,25.3269333 C27.5559748,25.9631787 27.5886297,26.604544 27.5886297,27.2617813 L28.3933748,27.2617813 L28.3933748,27.0247253 C28.3933748,24.9347413 28.3933748,22.8446436 28.3933748,20.754432 C28.3933748,20.293632 28.5498103,20.1376427 29.0088587,20.137472 C30.5884297,20.137472 32.1681716,20.1429333 33.7477426,20.1274027 C33.9391559,20.1206678 34.1153163,20.2311829 34.1922587,20.406272 C34.5642845,20.9885867 34.9436619,21.5650987 35.319791,22.1453653 Z M31.2263103,22.057984 L31.2263103,25.4841173 L35.5967587,25.4841173 C35.4770813,25.29536 35.3712523,25.127936 35.2643974,24.961536 C34.6736469,24.0432356 34.0817566,23.1255609 33.4887264,22.208512 C33.4460541,22.1358482 33.3754368,22.0837958 33.2933103,22.0644693 C32.6094394,22.0530347 31.9255684,22.0573013 31.2269942,22.0573013 L31.2263103,22.057984 Z M22.5396103,31.2418987 C22.5358413,30.6445586 22.1716663,30.1084152 21.6171563,29.8838491 C21.0626463,29.659283 20.4272073,29.7906016 20.0075913,30.2164787 C19.5879753,30.6423558 19.4669735,31.2787649 19.7010941,31.828501 C19.9352147,32.378237 20.4782652,32.7328358 21.0766394,32.7266987 C21.4687723,32.7262889 21.8443653,32.5689334 22.1193382,32.2898576 C22.3943111,32.0107818 22.5456983,31.6332941 22.5396103,31.2418987 Z M34.3430523,31.2854187 C34.3387254,30.6881153 33.9740891,30.1523337 33.4194138,29.9282623 C32.8647385,29.704191 32.2294503,29.8360346 31.8102031,30.2622274 C31.390956,30.6884203 31.2704588,31.3248833 31.5049788,31.8744139 C31.7394989,32.4239445 32.2827703,32.7781316 32.8811071,32.771584 C33.2733778,32.7709536 33.6489982,32.6132584 33.9238091,32.3338305 C34.19862,32.0544027 34.3496471,31.6766024 34.3430523,31.2850773 L34.3430523,31.2854187 Z" id="Path_863"></path>
                </g>
            </g>
        </g>
    </g>
</svg>