<svg xmlns="http://www.w3.org/2000/svg" width="64.819" height="40.936" viewBox="0 0 64.819 40.936">
  <g id="visa" transform="translate(0.001 0.001)">
    <path id="Path_904" d="M59.7,0H5.118A5.026,5.026,0,0,0,0,5.118v30.7a5.132,5.132,0,0,0,5.117,5.117H59.7a5.026,5.026,0,0,0,5.117-5.117V5.118A5.132,5.132,0,0,0,59.7,0Z" transform="translate(-0.001 -0.001)" opacity="0.07"/>
    <path id="Path_905" d="M57.994,0A3.421,3.421,0,0,1,61.4,3.411v30.7a3.421,3.421,0,0,1-3.411,3.411H3.411A3.421,3.421,0,0,1,0,34.114V3.411A3.421,3.421,0,0,1,3.411,0H57.994" transform="translate(1.706 1.706)" fill="#fff"/>
    <path id="Path_906" d="M44.69,13.678h-2.9c-.171,0-.171,0-.341-.171l-.34-1.535-.171-.341H36.844c-.168,0-.341,0-.341.341l-.512,1.535a.167.167,0,0,1-.049.122.163.163,0,0,1-.116.049H32.238l.341-.852,4.947-11.6c0-.8.446-1.194,1.364-1.194h2.56c.175,0,.34,0,.34.341l2.389,11.087a7.271,7.271,0,0,1,.341,1.876c.17.172.17.172.17.343ZM39.231,3.614a22.336,22.336,0,0,0-1.7,5.118h3.241a37.933,37.933,0,0,0-1.024-5.118ZM15.863,13.677h0a6.891,6.891,0,0,1,.337-1.7c.723-3.18,1.648-7.353,2.388-11.428.031-.062.057-.119.08-.17.1-.228.154-.342.432-.342h3.07A51.359,51.359,0,0,1,20.976,5.49l-.006.032c-.5,2.5-1.02,5.1-1.7,7.643,0,.341-.171.341-.512.341l-2.893.171Zm-4.656-.1a1.682,1.682,0,0,1-.277-.034,2.049,2.049,0,0,0-.355-.041H8.017c-.168,0-.341,0-.341-.341L4.947,2.59A3.475,3.475,0,0,0,3.411,1.567,11.324,11.324,0,0,0,.17.714L0,.373C0,.207.333.032.512.032h5.8l.073,0A1.66,1.66,0,0,1,8.018,1.4L9.553,8.9c0,.171,0,.171.171.341a.17.17,0,0,1,.05-.122.165.165,0,0,1,.115-.049h.006l3.582-8.7a.185.185,0,0,1-.059-.2.251.251,0,0,1,.23-.137H17.23c0,.171,0,.171-.171.341L11.769,12.825a3.293,3.293,0,0,0-.141.327.894.894,0,0,1-.2.355A.293.293,0,0,1,11.207,13.582Zm14.133-.223a10.225,10.225,0,0,1-3.166-.369v0c-.1.2-.141.279-.192.279s-.078-.042-.147-.111l.682-3.067a.6.6,0,0,1,.341.171,6.764,6.764,0,0,0,3,.707c.192,0,.387-.008.578-.025a3.137,3.137,0,0,0,1.193-.341.964.964,0,0,0,.645-.689A1.357,1.357,0,0,0,27.8,8.732a9.619,9.619,0,0,0-1.364-.853,7.022,7.022,0,0,1-1.877-1.194A3.484,3.484,0,0,1,24.391,1.4c.23-.154.433-.306.629-.453A3.36,3.36,0,0,1,27.292.032c.4-.021.8-.032,1.2-.032A22.693,22.693,0,0,1,32.58.373h.171a17.861,17.861,0,0,1-.682,2.9A7.137,7.137,0,0,0,29.51,2.59c-.082,0-.166-.006-.248-.006a4.756,4.756,0,0,0-1.287.177.882.882,0,0,0-.681.341.823.823,0,0,0,0,1.194l.852.682A18.71,18.71,0,0,1,30.022,6,3.778,3.778,0,0,1,31.9,8.39a3.673,3.673,0,0,1-1.535,3.923,3.107,3.107,0,0,1-2.3,1.02h-.092c-.5,0-.973.007-1.431.015C26.122,13.353,25.725,13.359,25.341,13.359Z" transform="translate(8.529 13.614)" fill="#142688"/>
  </g>
</svg>
