<?xml version="1.0" encoding="UTF-8"?>
<svg width="24px" height="56px" viewBox="0 0 24 56" version="1.1" xmlns="http://www.w3.org/2000/svg" xmlns:xlink="http://www.w3.org/1999/xlink">
    <title>Winch</title>
    <g id="Member-Login" stroke="none" stroke-width="1" fill="none" fill-rule="evenodd">
        <g id="Custom-Preset-Copy-6" transform="translate(-1078.000000, -875.000000)" fill="#FFFFFF" fill-rule="nonzero">
            <g id="Winch" transform="translate(1078.000000, 875.000000)">
                <path d="M14.7233952,34.1334459 C15.430321,35.7411318 16.4932432,37.1668075 17.832348,38.3032095 C20.6494932,40.7119933 21.8454391,44.5173142 20.9134291,48.1047297 C19.9809966,51.6925676 17.0840372,54.4341216 13.4501689,55.1668075 C12.8209459,55.2875844 12.1815879,55.3492399 11.5409628,55.3513546 C8.97043914,55.3534628 6.50422292,54.3336149 4.68581081,52.5168919 C2.8673987,50.7001689 1.84543914,48.2352196 1.84501686,45.664696 L1.84501686,45.664696 L1.84501686,44.7423987 C1.84501686,43.4687501 2.87753384,42.4362331 4.15118249,42.4362331 C5.42525341,42.4362331 6.45777027,43.4687501 6.45777027,44.7423987 L6.45777027,44.7423987 L6.45777027,45.664696 C6.45565881,47.194679 7.14400335,48.6435811 8.33065881,49.6085304 C9.51773643,50.5734798 11.0768582,50.9514358 12.5739021,50.6372466 C14.5557432,50.2377534 16.1043075,48.6887669 16.5038006,46.707348 C16.8779561,44.8923142 16.2390203,43.0173142 14.8340372,41.8086994 C12.4476351,39.7972973 10.7056588,37.1279561 9.82474659,34.1334459 L9.82474659,34.1334459 Z M17.5278716,28.5983952 L17.5278716,29.5206925 C17.5278716,31.0494088 16.2888514,32.2884291 14.7605574,32.2884291 L14.7605574,32.2884291 L9.22508443,32.2884291 C7.69679049,32.2884291 6.45777027,31.0494088 6.45777027,29.5206925 L6.45777027,29.5206925 L6.45777027,28.5983952 L17.5278716,28.5983952 Z M23.0629223,8.30278714 C23.5717905,8.30405405 23.9839526,8.71621622 23.9856419,9.22508443 L23.9856419,9.22508443 L23.9856419,17.2694257 C23.984375,17.4379223 23.9396115,17.6030405 23.8564189,17.7491555 L23.8564189,17.7491555 L18.7179054,26.3010979 C18.5548986,26.5844595 18.2512669,26.757179 17.9244088,26.7530318 L17.9244088,26.7530318 L6.06081081,26.7530318 C5.73437503,26.757179 5.43074324,26.5844595 5.26773643,26.3010979 L5.26773643,26.3010979 L0.129222919,17.7491555 C0.0456081081,17.6030405 0.0012668973,17.4379223 1.59872116e-13,17.2694257 L1.59872116e-13,17.2694257 L1.59872116e-13,9.22508443 C0.0012668973,8.71621622 0.413429081,8.30405405 0.922719568,8.30278714 L0.922719568,8.30278714 Z M3.69003373,10.1478041 C3.18074324,10.1478041 2.76773643,10.5608108 2.76773643,11.0701014 L2.76773643,11.0701014 L2.76773643,17.5278716 C2.77027027,17.6891892 2.81123308,17.8471284 2.88766897,17.9890203 L2.88766897,17.9890203 L6.5777027,24.4467905 C6.835304,24.8859797 7.39738173,25.0375844 7.84163849,24.7880067 C8.28167232,24.5312499 8.43412162,23.9679054 8.1828547,23.5244932 L8.1828547,23.5244932 L4.61275341,17.2787162 L4.61275341,11.0701014 C4.61275341,10.5608108 4.19974659,10.1478041 3.69003373,10.1478041 Z M11.992821,10.1478041 C9.95481416,10.1478041 8.30278714,11.7998311 8.30278714,13.8378378 C8.30278714,15.8758445 9.95481416,17.5278719 11.992821,17.5278719 C12.9717061,17.5282939 13.910473,17.1393581 14.6021959,16.4472129 C15.2943412,15.7554898 15.683277,14.816723 15.682855,13.8378378 C15.682855,11.7998311 14.0308277,10.1478041 11.992821,10.1478041 Z M11.992821,11.992821 C13.0118243,11.992821 13.8378378,12.8188345 13.8378378,13.8378378 C13.8378378,14.8568412 13.0118243,15.6828547 11.992821,15.6828547 C10.9738175,15.6828547 10.1478041,14.8568412 10.1478041,13.8378378 C10.1478041,12.8188345 10.9738175,11.992821 11.992821,11.992821 Z M18.4505912,-2.96651592e-13 C18.9598817,-2.96651592e-13 19.3728885,0.413006703 19.3728885,0.922719568 L19.3728885,0.922719568 L19.3728885,6.45777027 L14.7605574,6.45777027 L14.7605574,0.922719568 C14.7605574,0.413006703 15.1735642,-2.96651592e-13 15.6828547,-2.96651592e-13 L15.6828547,-2.96651592e-13 Z M8.30278714,-2.96651592e-13 C8.81207773,-2.96651592e-13 9.22508443,0.413006703 9.22508443,0.922719568 L9.22508443,0.922719568 L9.22508443,6.45777027 L4.61275341,6.45777027 L4.61275341,0.922719568 C4.61275341,0.413006703 5.02576011,-2.96651592e-13 5.5350507,-2.96651592e-13 L5.5350507,-2.96651592e-13 Z" id="Combined-Shape"></path>
            </g>
        </g>
    </g>
</svg>